<svg width="22" height="26" viewBox="0 0 22 26" fill="none" xmlns="http://www.w3.org/2000/svg">
<path d="M1.3457 2.68066H4.39258C5.23047 2.68066 6.07259 2.68913 6.91895 2.70605C7.77376 2.72298 8.59049 2.75684 9.36914 2.80762C10.1562 2.84993 10.8799 2.90918 11.54 2.98535C12.2002 3.06152 12.7546 3.15885 13.2031 3.27734C13.8633 3.47201 14.4769 3.77669 15.0439 4.19141C15.6195 4.60612 16.1527 5.09277 16.6436 5.65137C16.8382 5.87988 17.054 6.1888 17.291 6.57812C17.5365 6.95898 17.765 7.39909 17.9766 7.89844C18.1966 8.39779 18.3786 8.93945 18.5225 9.52344C18.6663 10.1074 18.7383 10.7126 18.7383 11.3389C18.7383 12.82 18.459 14.1572 17.9004 15.3506C17.3503 16.5355 16.5505 17.6273 15.501 18.626C15.4502 18.6514 15.374 18.7021 15.2725 18.7783C15.1794 18.8545 15.0778 18.9391 14.9678 19.0322C14.8577 19.1169 14.752 19.1973 14.6504 19.2734C14.5573 19.3496 14.4896 19.4046 14.4473 19.4385C14.2526 19.5993 14.0114 19.7516 13.7236 19.8955C13.4443 20.0394 13.1354 20.1706 12.7969 20.2891C12.4583 20.4076 12.1029 20.5176 11.7305 20.6191C11.3665 20.7207 11.0068 20.8053 10.6514 20.873C10.2959 20.9408 9.96159 20.9915 9.64844 21.0254C9.33529 21.0677 9.06445 21.0889 8.83594 21.0889C8.50586 21.0889 8.16732 21.0719 7.82031 21.0381C7.47331 21.0127 7.07129 21 6.61426 21H0.939453C0.66862 21 0.533203 20.9111 0.533203 20.7334C0.533203 20.6318 0.62207 20.5514 0.799805 20.4922C0.977539 20.4245 1.19336 20.3737 1.44727 20.3398C1.70117 20.2975 1.97201 20.2637 2.25977 20.2383C2.54753 20.2044 2.80566 20.1663 3.03418 20.124C3.20345 20.0902 3.3304 20.0436 3.41504 19.9844C3.50814 19.9167 3.57161 19.8447 3.60547 19.7686C3.64779 19.5908 3.67318 19.4512 3.68164 19.3496C3.6901 19.2396 3.69434 19.1169 3.69434 18.9814V3.54395C3.66895 3.4847 3.55892 3.42969 3.36426 3.37891C3.17806 3.32812 2.94954 3.28158 2.67871 3.23926C2.41634 3.19694 2.13281 3.15462 1.82812 3.1123C1.52344 3.06999 1.24414 3.02767 0.990234 2.98535C0.854818 2.96842 0.787109 2.92611 0.787109 2.8584C0.787109 2.84147 0.833659 2.79915 0.926758 2.73145C0.960612 2.71452 1.00716 2.70182 1.06641 2.69336C1.13411 2.6849 1.22721 2.68066 1.3457 2.68066ZM6.61426 3.60742V10.7422C6.61426 11.2585 6.59733 11.7578 6.56348 12.2402C6.53809 12.7142 6.50846 13.1797 6.47461 13.6367C6.44922 14.0938 6.4196 14.5508 6.38574 15.0078C6.36035 15.4564 6.34766 15.9176 6.34766 16.3916C6.34766 17.458 6.4069 18.279 6.52539 18.8545C6.65234 19.4215 6.82585 19.8278 7.0459 20.0732C7.14746 20.2087 7.29134 20.2975 7.47754 20.3398C7.6722 20.3737 7.8457 20.3906 7.99805 20.3906C8.6582 20.3906 9.28451 20.306 9.87695 20.1367C10.4694 19.9674 11.0153 19.7347 11.5146 19.4385C12.0225 19.1423 12.4753 18.7952 12.873 18.3975C13.2793 17.9997 13.6221 17.5723 13.9014 17.1152C14.4854 16.1758 14.9212 15.2321 15.209 14.2842C15.4967 13.3278 15.6406 12.418 15.6406 11.5547C15.6406 11.0807 15.6025 10.6279 15.5264 10.1963C15.4587 9.76465 15.374 9.36686 15.2725 9.00293C15.1709 8.639 15.0609 8.31738 14.9424 8.03809C14.8239 7.75879 14.7181 7.53874 14.625 7.37793C14.498 7.14941 14.3203 6.87435 14.0918 6.55273C13.8633 6.22266 13.5671 5.88411 13.2031 5.53711C12.8477 5.18164 12.4118 4.83887 11.8955 4.50879C11.3792 4.17025 10.7656 3.87826 10.0547 3.63281C9.61458 3.47201 9.17448 3.36198 8.73438 3.30273C8.29427 3.24349 7.81185 3.21387 7.28711 3.21387C7.23633 3.21387 7.16862 3.2181 7.08398 3.22656C7.00781 3.23503 6.93587 3.25195 6.86816 3.27734C6.80046 3.30273 6.74121 3.34505 6.69043 3.4043C6.63965 3.45508 6.61426 3.52279 6.61426 3.60742Z" fill="black"/>
<path d="M6.91895 2.70605L6.89895 3.70585L6.89915 3.70586L6.91895 2.70605ZM9.36914 2.80762L9.30406 3.80556L9.31545 3.80618L9.36914 2.80762ZM13.2031 3.27734L13.486 2.31817L13.4723 2.31414L13.4585 2.31051L13.2031 3.27734ZM15.0439 4.19141L14.4536 4.9986L14.4593 5.00271L15.0439 4.19141ZM16.6436 5.65137L17.4048 5.0029L17.3998 4.99704L17.3947 4.99125L16.6436 5.65137ZM17.291 6.57812L16.4368 7.09807L16.4435 7.10904L16.4504 7.11983L17.291 6.57812ZM17.9766 7.89844L17.0558 8.28859L17.0586 8.29516L17.0615 8.3017L17.9766 7.89844ZM17.9004 15.3506L16.9947 14.9266L16.9934 14.9295L17.9004 15.3506ZM15.501 18.626L15.9482 19.5204L16.082 19.4535L16.1903 19.3504L15.501 18.626ZM15.2725 18.7783L14.6725 17.9783L14.6556 17.991L14.6392 18.0044L15.2725 18.7783ZM14.9678 19.0322L15.5775 19.8249L15.5959 19.8107L15.6137 19.7956L14.9678 19.0322ZM14.6504 19.2734L14.0504 18.4734L14.0335 18.4861L14.0172 18.4995L14.6504 19.2734ZM14.4473 19.4385L13.8226 18.6576L13.8164 18.6625L13.8104 18.6675L14.4473 19.4385ZM13.7236 19.8955L13.2764 19.001L13.2657 19.0065L13.7236 19.8955ZM12.7969 20.2891L12.4665 19.3452L12.7969 20.2891ZM11.7305 20.6191L11.4673 19.6544L11.4617 19.6559L11.7305 20.6191ZM9.64844 21.0254L9.54096 20.0312L9.52772 20.0326L9.51452 20.0344L9.64844 21.0254ZM7.82031 21.0381L7.91741 20.0428L7.90536 20.0416L7.89329 20.0408L7.82031 21.0381ZM0.799805 20.4922L1.11603 21.4409L1.13607 21.4342L1.1558 21.4267L0.799805 20.4922ZM1.44727 20.3398L1.57943 21.3311L1.59559 21.3289L1.61166 21.3262L1.44727 20.3398ZM2.25977 20.2383L2.34766 21.2344L2.36215 21.2331L2.37661 21.2314L2.25977 20.2383ZM3.03418 20.124L3.21627 21.1073L3.22329 21.106L3.2303 21.1046L3.03418 20.124ZM3.41504 19.9844L3.9885 20.8036L3.9959 20.7984L4.00321 20.7931L3.41504 19.9844ZM3.60547 19.7686L4.51928 20.1747L4.55685 20.0902L4.57827 20.0002L3.60547 19.7686ZM3.68164 19.3496L4.67821 19.4327L4.6787 19.4263L3.68164 19.3496ZM3.69434 3.54395H4.69434V3.33869L4.61348 3.15003L3.69434 3.54395ZM3.36426 3.37891L3.10112 4.34373L3.11184 4.34652L3.36426 3.37891ZM2.67871 3.23926L2.51948 4.22651L2.52433 4.22727L2.67871 3.23926ZM0.990234 2.98535L1.15463 1.99896L1.13451 1.9956L1.11427 1.99307L0.990234 2.98535ZM0.926758 2.73145L0.479544 1.83702L0.405519 1.87403L0.338586 1.92271L0.926758 2.73145ZM1.06641 2.69336L0.942372 1.70108L0.933668 1.70217L0.924985 1.70341L1.06641 2.69336ZM6.56348 12.2402L5.56593 12.1702L5.56535 12.1785L5.56491 12.1867L6.56348 12.2402ZM6.47461 13.6367L5.47734 13.5628L5.47666 13.572L5.47615 13.5812L6.47461 13.6367ZM6.38574 15.0078L5.38847 14.9339L5.38783 14.9426L5.38734 14.9513L6.38574 15.0078ZM6.52539 18.8545L5.54593 19.0561L5.54767 19.0646L5.54955 19.073L6.52539 18.8545ZM7.0459 20.0732L7.8459 19.4732L7.81966 19.4383L7.79047 19.4057L7.0459 20.0732ZM7.47754 20.3398L7.25592 21.315L7.28093 21.3207L7.3062 21.3251L7.47754 20.3398ZM11.5146 19.4385L11.0108 18.5747L11.0044 18.5784L11.5146 19.4385ZM12.873 18.3975L12.1734 17.6829L12.1659 17.6904L12.873 18.3975ZM13.9014 17.1152L13.0521 16.5873L13.0481 16.5938L13.9014 17.1152ZM15.209 14.2842L16.1659 14.5747L16.1666 14.5723L15.209 14.2842ZM15.5264 10.1963L14.5384 10.3513L14.5399 10.3607L14.5416 10.3701L15.5264 10.1963ZM14.625 7.37793L13.7508 7.86357L13.7551 7.87131L13.7596 7.87897L14.625 7.37793ZM14.0918 6.55273L13.2695 7.12199L13.2766 7.13194L14.0918 6.55273ZM13.2031 5.53711L12.496 6.24422L12.5044 6.25263L12.513 6.26085L13.2031 5.53711ZM11.8955 4.50879L11.3471 5.34509L11.3568 5.35131L11.8955 4.50879ZM10.0547 3.63281L9.71149 4.57208L9.7199 4.57515L9.72835 4.57807L10.0547 3.63281ZM7.08398 3.22656L6.98447 2.23147L6.97355 2.23268L7.08398 3.22656ZM6.69043 3.4043L7.39754 4.1114L7.42469 4.08425L7.44969 4.05509L6.69043 3.4043ZM1.3457 3.68066H4.39258V1.68066H1.3457V3.68066ZM4.39258 3.68066C5.22373 3.68066 6.05919 3.68906 6.89895 3.70585L6.93894 1.70625C6.08599 1.6892 5.2372 1.68066 4.39258 1.68066V3.68066ZM6.89915 3.70586C7.74027 3.72251 8.54184 3.75579 9.30406 3.8055L9.43422 1.80974C8.63915 1.75788 7.80726 1.72345 6.93874 1.70625L6.89915 3.70586ZM9.31545 3.80618C10.0858 3.84759 10.7888 3.90531 11.4254 3.97876L11.6547 1.99194C10.9709 1.91305 10.2267 1.85228 9.42283 1.80906L9.31545 3.80618ZM11.4254 3.97876C12.0565 4.05158 12.5604 4.14187 12.9477 4.24418L13.4585 2.31051C12.9487 2.17584 12.3439 2.07147 11.6547 1.99194L11.4254 3.97876ZM12.9203 4.23651C13.4677 4.39792 13.9776 4.65043 14.4536 4.99858L15.6343 3.38424C14.9762 2.90296 14.2589 2.54609 13.486 2.31817L12.9203 4.23651ZM14.4593 5.00271C14.971 5.37138 15.4488 5.80667 15.8924 6.31148L17.3947 4.99125C16.8566 4.37888 16.268 3.84085 15.6286 3.3801L14.4593 5.00271ZM15.8823 6.29983C16.0299 6.47308 16.2148 6.73335 16.4368 7.09807L18.1452 6.05818C17.8933 5.64425 17.6465 5.28668 17.4048 5.0029L15.8823 6.29983ZM16.4504 7.11983C16.6595 7.44427 16.8624 7.83203 17.0558 8.28859L18.8973 7.50829C18.6676 6.96615 18.4134 6.4737 18.1316 6.03642L16.4504 7.11983ZM17.0615 8.3017C17.256 8.74303 17.4201 9.22924 17.5515 9.76266L19.4934 9.28421C19.3371 8.64967 19.1373 8.05254 18.8916 7.49518L17.0615 8.3017ZM17.5515 9.76266C17.6753 10.2652 17.7383 10.7899 17.7383 11.3389H19.7383C19.7383 10.6353 19.6574 9.94965 19.4934 9.28421L17.5515 9.76266ZM17.7383 11.3389C17.7383 12.6917 17.4839 13.8816 16.9947 14.9266L18.8061 15.7745C19.4341 14.4329 19.7383 12.9482 19.7383 11.3389H17.7383ZM16.9934 14.9295C16.5016 15.9887 15.78 16.98 14.8116 17.9016L16.1903 19.3504C17.3209 18.2746 18.1989 17.0822 18.8074 15.7717L16.9934 14.9295ZM15.0538 17.7315C14.916 17.8004 14.7781 17.8991 14.6725 17.9783L15.8725 19.5783C15.9136 19.5474 15.9424 19.5272 15.9605 19.5152C15.9692 19.5093 15.9731 19.507 15.9726 19.5073C15.9723 19.5075 15.9701 19.5088 15.9664 19.5108C15.9627 19.5129 15.9566 19.5162 15.9482 19.5204L15.0538 17.7315ZM14.6392 18.0044C14.5411 18.0846 14.4353 18.1729 14.3218 18.2688L15.6137 19.7956C15.7203 19.7054 15.8176 19.6244 15.9057 19.5523L14.6392 18.0044ZM14.3581 18.2396C14.251 18.322 14.1484 18.3999 14.0504 18.4734L15.2504 20.0734C15.3555 19.9946 15.4645 19.9117 15.5775 19.8249L14.3581 18.2396ZM14.0172 18.4995C13.9243 18.5754 13.8603 18.6274 13.8226 18.6576L15.072 20.2193C15.1189 20.1818 15.1902 20.1238 15.2836 20.0474L14.0172 18.4995ZM13.8104 18.6675C13.6874 18.7691 13.514 18.8823 13.2764 19.0011L14.1708 20.7899C14.5088 20.6209 14.8178 20.4295 15.0841 20.2094L13.8104 18.6675ZM13.2657 19.0065C13.0329 19.1265 12.7673 19.2399 12.4665 19.3452L13.1272 21.2329C13.5035 21.1012 13.8558 20.9523 14.1816 20.7845L13.2657 19.0065ZM12.4665 19.3452C12.1517 19.4554 11.8188 19.5585 11.4674 19.6544L11.9936 21.5839C12.3869 21.4766 12.7649 21.3597 13.1272 21.2329L12.4665 19.3452ZM11.4617 19.6559C11.1235 19.7503 10.7911 19.8285 10.4643 19.8907L10.8385 21.8554C11.2226 21.7822 11.6096 21.6911 11.9993 21.5823L11.4617 19.6559ZM10.4643 19.8907C10.1314 19.9541 9.82384 20.0006 9.54096 20.0312L9.75592 22.0196C10.0993 21.9825 10.4604 21.9274 10.8385 21.8554L10.4643 19.8907ZM9.51452 20.0344C9.2303 20.0728 9.00638 20.0889 8.83594 20.0889V22.0889C9.12252 22.0889 9.44028 22.0626 9.78236 22.0164L9.51452 20.0344ZM8.83594 20.0889C8.54004 20.0889 8.23394 20.0737 7.91741 20.0428L7.72321 22.0334C8.1007 22.0702 8.47168 22.0889 8.83594 22.0889V20.0889ZM7.89329 20.0408C7.51586 20.0131 7.08858 20 6.61426 20V22C7.05399 22 7.43076 22.0123 7.74734 22.0354L7.89329 20.0408ZM6.61426 20H0.939453V22H6.61426V20ZM0.939453 20C0.881595 20 1.01189 19.9847 1.18342 20.0973C1.2828 20.1625 1.38163 20.2622 1.45017 20.3972C1.51678 20.5283 1.5332 20.65 1.5332 20.7334H-0.466797C-0.466797 21.1204 -0.294268 21.5198 0.0861092 21.7694C0.39306 21.9708 0.726478 22 0.939453 22V20ZM1.5332 20.7334C1.5332 21.0164 1.39463 21.2264 1.27077 21.3385C1.17115 21.4286 1.09238 21.4488 1.11603 21.4409L0.483577 19.5435C0.329498 19.5949 0.117422 19.6849 -0.0710598 19.8554C-0.283789 20.0479 -0.466797 20.3488 -0.466797 20.7334H1.5332ZM1.1558 21.4267C1.24141 21.3941 1.37754 21.358 1.57943 21.3311L1.3151 19.3486C1.00918 19.3894 0.713664 19.4549 0.443809 19.5577L1.1558 21.4267ZM1.61166 21.3262C1.83736 21.2886 2.08248 21.2578 2.34766 21.2344L2.17187 19.2422C1.86153 19.2695 1.56498 19.3064 1.28287 19.3534L1.61166 21.3262ZM2.37661 21.2314C2.68115 21.1956 2.96162 21.1545 3.21627 21.1073L2.85209 19.1407C2.6497 19.1782 2.4139 19.2133 2.14292 19.2451L2.37661 21.2314ZM3.2303 21.1046C3.45608 21.0594 3.73926 20.9781 3.9885 20.8036L2.84158 19.1651C2.86587 19.1481 2.88515 19.1376 2.89641 19.132C2.90776 19.1263 2.91357 19.1243 2.91209 19.1248C2.91072 19.1253 2.90411 19.1277 2.89125 19.1312C2.87847 19.1346 2.86094 19.1389 2.83806 19.1434L3.2303 21.1046ZM4.00321 20.7931C4.18665 20.6597 4.39201 20.4611 4.51928 20.1747L2.69166 19.3624C2.72177 19.2947 2.75699 19.2471 2.78263 19.218C2.80771 19.1896 2.82564 19.1765 2.82687 19.1756L4.00321 20.7931ZM4.57827 20.0002C4.62465 19.8054 4.66351 19.6087 4.67819 19.4327L2.68509 19.2666C2.68284 19.2936 2.67092 19.3763 2.63266 19.5369L4.57827 20.0002ZM4.6787 19.4263C4.6895 19.2858 4.69434 19.137 4.69434 18.9814H2.69434C2.69434 19.0968 2.69071 19.1934 2.68459 19.2729L4.6787 19.4263ZM4.69434 18.9814V3.54395H2.69434V18.9814H4.69434ZM4.61348 3.15003C4.45393 2.77774 4.1397 2.61368 4.03999 2.56382C3.89618 2.49192 3.74466 2.44467 3.61668 2.41129L3.11184 4.34652C3.17852 4.36392 3.17935 4.36957 3.14556 4.35268C3.12743 4.34362 3.0764 4.31678 3.01455 4.2646C2.95462 4.21403 2.84874 4.10947 2.77519 3.93786L4.61348 3.15003ZM3.62738 2.41414C3.39401 2.3505 3.1267 2.29712 2.83309 2.25125L2.52433 4.22727C2.77238 4.26603 2.96211 4.30575 3.10114 4.34367L3.62738 2.41414ZM2.83794 2.25202C2.56735 2.20837 2.27652 2.16498 1.96569 2.12181L1.69056 4.1028C1.98911 4.14426 2.26533 4.18551 2.51948 4.2265L2.83794 2.25202ZM1.96569 2.12181C1.6683 2.08051 1.3981 2.03954 1.15463 1.99896L0.825835 3.97175C1.09018 4.0158 1.37857 4.05947 1.69056 4.1028L1.96569 2.12181ZM1.11427 1.99307C1.1189 1.99365 1.14354 1.99686 1.18137 2.0079C1.21734 2.01839 1.2865 2.04205 1.36789 2.09292C1.45147 2.14516 1.56229 2.23542 1.65146 2.38032C1.74477 2.53194 1.78711 2.6996 1.78711 2.8584H-0.212891C-0.212891 3.30361 0.0429473 3.62333 0.307892 3.78892C0.522998 3.92336 0.742617 3.96218 0.8662 3.97763L1.11427 1.99307ZM1.78711 2.8584C1.78711 3.07269 1.71787 3.22978 1.68372 3.29807C1.64488 3.37575 1.60417 3.43074 1.58216 3.45876C1.53838 3.51448 1.50088 3.54828 1.49469 3.5539C1.47758 3.56946 1.47797 3.56706 1.51493 3.54018L0.338586 1.92271C0.282451 1.96353 0.213009 2.01615 0.149349 2.07402C0.11989 2.10081 0.0649321 2.1526 0.00951906 2.22312C-0.018316 2.25855 -0.0633865 2.32015 -0.105136 2.40365C-0.142192 2.47776 -0.212891 2.63988 -0.212891 2.8584H1.78711ZM1.37397 3.62587C1.31853 3.65359 1.27404 3.66748 1.25018 3.67399C1.2253 3.68078 1.20995 3.68301 1.20783 3.68331L0.924985 1.70341C0.813657 1.71931 0.648682 1.75245 0.479544 1.83702L1.37397 3.62587ZM1.19044 3.68564C1.18988 3.68571 1.19306 3.6853 1.20065 3.6847C1.20812 3.68411 1.21859 3.68343 1.23242 3.68281C1.26044 3.68153 1.29776 3.68066 1.3457 3.68066V1.68066C1.21114 1.68066 1.07044 1.68507 0.942372 1.70108L1.19044 3.68564ZM5.61426 3.60742V10.7422H7.61426V3.60742H5.61426ZM5.61426 10.7422C5.61426 11.2367 5.59804 11.7126 5.56593 12.1702L7.56102 12.3102C7.59662 11.803 7.61426 11.2803 7.61426 10.7422H5.61426ZM5.56491 12.1867C5.53987 12.6541 5.51068 13.1128 5.47734 13.5628L7.47188 13.7106C7.50625 13.2465 7.5363 12.7742 7.56204 12.2937L5.56491 12.1867ZM5.47615 13.5812C5.4511 14.0321 5.42188 14.483 5.38847 14.9339L7.38301 15.0817C7.41732 14.6185 7.44734 14.1554 7.47307 13.6922L5.47615 13.5812ZM5.38734 14.9513C5.36083 15.4197 5.34766 15.8998 5.34766 16.3916H7.34766C7.34766 15.9355 7.35987 15.4931 7.38414 15.0643L5.38734 14.9513ZM5.34766 16.3916C5.34766 17.4805 5.40697 18.3812 5.54593 19.0561L7.50485 18.6528C7.40683 18.1768 7.34766 17.4355 7.34766 16.3916H5.34766ZM5.54955 19.073C5.68927 19.6971 5.91002 20.3043 6.30133 20.7408L7.79047 19.4057C7.74167 19.3513 7.61542 19.146 7.50123 18.636L5.54955 19.073ZM6.2459 20.6732C6.50795 21.0227 6.87007 21.2273 7.25592 21.315L7.69916 19.3647C7.69981 19.3649 7.72241 19.3702 7.75547 19.3907C7.79001 19.412 7.82173 19.441 7.8459 19.4732L6.2459 20.6732ZM7.3062 21.3251C7.54178 21.366 7.7743 21.3906 7.99805 21.3906V19.3906C7.9171 19.3906 7.80262 19.3814 7.64888 19.3546L7.3062 21.3251ZM7.99805 21.3906C8.74451 21.3906 9.46374 21.2948 10.1517 21.0982L9.60223 19.1752C9.10527 19.3172 8.5719 19.3906 7.99805 19.3906V21.3906ZM10.1517 21.0982C10.8216 20.9068 11.4473 20.6411 12.0249 20.2985L11.0044 18.5784C10.5833 18.8283 10.1172 19.0281 9.60223 19.1752L10.1517 21.0982ZM12.0185 20.3023C12.5972 19.9647 13.119 19.5658 13.5802 19.1046L12.1659 17.6904C11.8316 18.0247 11.4477 18.3198 11.0108 18.5747L12.0185 20.3023ZM13.5727 19.112C14.0343 18.66 14.4297 18.1684 14.7546 17.6367L13.0481 16.5938C12.8144 16.9762 12.5243 17.3394 12.1734 17.683L13.5727 19.112ZM14.7507 17.6432C15.3754 16.6381 15.85 15.6151 16.1659 14.5747L14.2521 13.9937C13.9924 14.849 13.5953 15.7135 13.0521 16.5873L14.7507 17.6432ZM16.1666 14.5723C16.4781 13.5368 16.6406 12.5295 16.6406 11.5547H14.6406C14.6406 12.3065 14.5153 13.1188 14.2514 13.9961L16.1666 14.5723ZM16.6406 11.5547C16.6406 11.0271 16.5982 10.5159 16.5112 10.0225L14.5416 10.3701C14.6069 10.7399 14.6406 11.1343 14.6406 11.5547H16.6406ZM16.5143 10.0413C16.4415 9.57707 16.3491 9.14074 16.2357 8.73413L14.3093 9.27173C14.3989 9.59298 14.4759 9.95222 14.5384 10.3513L16.5143 10.0413ZM16.2357 8.73413C16.1252 8.33833 16.0017 7.97467 15.863 7.64754L14.0218 8.42864C14.12 8.6601 14.2166 8.93967 14.3093 9.27173L16.2357 8.73413ZM15.863 7.64754C15.7371 7.35079 15.6129 7.08848 15.4904 6.87689L13.7596 7.87897C13.8233 7.98899 13.9107 8.16679 14.0218 8.42864L15.863 7.64754ZM15.4992 6.89229C15.3477 6.61973 15.1473 6.31174 14.907 5.97353L13.2766 7.13194C13.4933 7.43696 13.6484 7.6791 13.7508 7.86357L15.4992 6.89229ZM14.914 5.98352C14.6385 5.58567 14.2946 5.19607 13.8932 4.81337L12.513 6.26085C12.8395 6.57215 13.088 6.85965 13.2696 7.12194L14.914 5.98352ZM13.9102 4.83C13.494 4.41377 12.9986 4.02714 12.4342 3.66627L11.3568 5.35131C11.825 5.6506 12.2013 5.94951 12.496 6.24422L13.9102 4.83ZM12.4439 3.67254C11.8453 3.28003 11.1539 2.95437 10.381 2.68756L9.72835 4.57807C10.3774 4.80214 10.9132 5.06046 11.3472 5.34503L12.4439 3.67254ZM10.3979 2.69355C9.89365 2.50931 9.38331 2.38107 8.86779 2.31167L8.60096 4.2938C8.96565 4.34289 9.33552 4.4347 9.71149 4.57208L10.3979 2.69355ZM8.86779 2.31167C8.37638 2.24552 7.8487 2.21387 7.28711 2.21387V4.21387C7.77499 4.21387 8.21216 4.24146 8.60096 4.2938L8.86779 2.31167ZM7.28711 2.21387C7.18842 2.21387 7.08336 2.22164 6.98448 2.23153L7.18349 4.2216C7.21639 4.21831 7.24179 4.21627 7.26062 4.21509C7.28011 4.21388 7.28809 4.21387 7.28711 4.21387V2.21387ZM6.97355 2.23268C6.81999 2.24974 6.66678 2.28486 6.51704 2.34101L7.21929 4.21367C7.20497 4.21904 7.19564 4.22031 7.19442 4.22045L6.97355 2.23268ZM6.51704 2.34101C6.27902 2.43027 6.08281 2.5766 5.93117 2.75351L7.44969 4.05509C7.39961 4.11351 7.3219 4.17519 7.21929 4.21367L6.51704 2.34101ZM5.98332 2.69719C5.71181 2.96871 5.61426 3.30853 5.61426 3.60742H7.61426C7.61426 3.66497 7.60555 3.74851 7.56963 3.84429C7.53256 3.94314 7.47381 4.03513 7.39754 4.1114L5.98332 2.69719Z" fill="#C11D1D"/>
<path d="M18.3945 19.9463V3.88672C18.3945 3.79362 18.458 3.71322 18.585 3.64551C18.7035 3.5778 18.86 3.52279 19.0547 3.48047C19.2493 3.42969 19.4652 3.3916 19.7021 3.36621C19.9307 3.33236 20.1549 3.30697 20.375 3.29004C20.5951 3.26465 20.7982 3.24349 20.9844 3.22656C21.1706 3.20964 21.306 3.18848 21.3906 3.16309C21.5007 3.15462 21.5557 3.09115 21.5557 2.97266C21.5557 2.91341 21.5176 2.87533 21.4414 2.8584C21.3568 2.83301 21.2848 2.82031 21.2256 2.82031H17.4551C17.2181 2.82031 16.9176 2.80762 16.5537 2.78223C16.1898 2.75684 15.8005 2.73145 15.3857 2.70605C14.971 2.68066 14.5479 2.65527 14.1162 2.62988C13.6846 2.60449 13.2826 2.5918 12.9102 2.5918H9.60938C9.60091 2.58333 9.55013 2.5791 9.45703 2.5791H9.19043C9.06348 2.5791 8.98307 2.64258 8.94922 2.76953C8.9069 2.88802 8.88574 2.99805 8.88574 3.09961C8.85189 3.53971 8.8138 3.99251 8.77148 4.45801C8.72917 4.91504 8.70801 5.36361 8.70801 5.80371C8.70801 5.89681 8.73763 5.97721 8.79688 6.04492C8.84766 6.10417 8.92383 6.13379 9.02539 6.13379C9.0931 6.13379 9.16081 6.12109 9.22852 6.0957C9.29622 6.06185 9.3597 5.97721 9.41895 5.8418C9.48665 5.69792 9.56283 5.53711 9.64746 5.35938C9.7321 5.18164 9.8252 5.00814 9.92676 4.83887C10.0283 4.6696 10.1341 4.51725 10.2441 4.38184C10.3542 4.23796 10.46 4.13216 10.5615 4.06445C10.8408 3.86979 11.1286 3.71745 11.4248 3.60742C11.721 3.4974 12.0299 3.41699 12.3516 3.36621C12.6647 3.31543 12.9863 3.28581 13.3164 3.27734C13.6465 3.26042 13.985 3.25195 14.332 3.25195H15.208C15.4196 3.25195 15.5973 3.28581 15.7412 3.35352C15.8766 3.41276 15.9443 3.56934 15.9443 3.82324V10.958C15.9443 11.0511 15.9062 11.1188 15.8301 11.1611C15.7539 11.2035 15.6947 11.2331 15.6523 11.25C15.4746 11.2246 15.2842 11.2077 15.0811 11.1992C14.8779 11.1908 14.679 11.1865 14.4844 11.1865C14.1797 11.1865 13.875 11.1823 13.5703 11.1738C13.2572 11.1654 12.9652 11.1442 12.6943 11.1104C12.4235 11.068 12.1823 11.0088 11.9707 10.9326C11.7507 10.8564 11.5856 10.7507 11.4756 10.6152C11.4417 10.5645 11.4079 10.484 11.374 10.374C11.3317 10.264 11.2936 10.1455 11.2598 10.0186C11.2259 9.8916 11.1963 9.77311 11.1709 9.66309C11.137 9.55306 11.1074 9.47266 11.082 9.42188C11.0397 9.29492 11.0143 9.15951 11.0059 9.01562C10.9974 8.86328 10.9847 8.72363 10.9678 8.59668C10.9508 8.46973 10.9128 8.36393 10.8535 8.2793C10.7943 8.19466 10.6885 8.15234 10.5361 8.15234C10.3499 8.15234 10.2399 8.22428 10.2061 8.36816C10.1637 8.51204 10.1426 8.66016 10.1426 8.8125V13.6875C10.1426 13.7298 10.1426 13.7764 10.1426 13.8271C10.1426 13.8695 10.1341 13.916 10.1172 13.9668C10.1003 14.1022 10.0918 14.2249 10.0918 14.335C10.0833 14.4365 10.0791 14.5042 10.0791 14.5381C10.0791 14.6312 10.1045 14.7158 10.1553 14.792C10.1976 14.8682 10.2653 14.9189 10.3584 14.9443C10.4684 14.9443 10.5573 14.8597 10.625 14.6904C10.7096 14.4704 10.7646 14.2376 10.79 13.9922C10.8154 13.7383 10.8577 13.4971 10.917 13.2686C10.9762 13.0316 11.0693 12.8158 11.1963 12.6211C11.3148 12.418 11.5137 12.2529 11.793 12.126C11.8945 12.0752 12.0215 12.0329 12.1738 11.999C12.3262 11.9652 12.487 11.9398 12.6562 11.9229C12.8171 11.8975 12.9779 11.8805 13.1387 11.8721C13.2995 11.8551 13.4349 11.8467 13.5449 11.8467C13.5872 11.8467 13.7142 11.8424 13.9258 11.834C14.1289 11.8255 14.3447 11.8213 14.5732 11.8213C14.8187 11.8213 15.043 11.8298 15.2461 11.8467C15.4492 11.8551 15.5719 11.8763 15.6143 11.9102C15.6904 11.9779 15.7412 12.0371 15.7666 12.0879C15.792 12.1387 15.8047 12.2318 15.8047 12.3672V19.9082C15.7962 20.0267 15.7201 20.1156 15.5762 20.1748C15.4238 20.2256 15.2419 20.2637 15.0303 20.2891C14.8102 20.3145 14.5775 20.3314 14.332 20.3398C14.0866 20.3483 13.8581 20.3652 13.6465 20.3906C13.4349 20.4076 13.2614 20.4456 13.126 20.5049C12.9821 20.5641 12.9102 20.6572 12.9102 20.7842C12.9102 20.8519 12.9355 20.9027 12.9863 20.9365C13.0286 20.9704 13.0837 20.9915 13.1514 21C13.2191 21.0169 13.291 21.0254 13.3672 21.0254C13.4349 21.0339 13.4941 21.0381 13.5449 21.0381C13.9935 21.0381 14.3955 21.0339 14.751 21.0254C15.1064 21.0169 15.445 21.0085 15.7666 21C16.0882 20.9831 16.4014 20.9704 16.7061 20.9619C17.0107 20.945 17.3324 20.9365 17.6709 20.9365C17.8656 20.9365 18.0602 20.945 18.2549 20.9619C18.4495 20.9704 18.6527 20.9831 18.8643 21C19.262 21.0254 19.6641 21.0381 20.0703 21.0381H20.7051C20.7474 21.0381 20.7939 21.0296 20.8447 21.0127C20.8955 21.0042 20.9209 20.9619 20.9209 20.8857C20.9209 20.8011 20.8955 20.7419 20.8447 20.708C20.7939 20.6742 20.6966 20.6403 20.5527 20.6064C20.3158 20.5557 20.0703 20.5218 19.8164 20.5049C19.5625 20.4795 19.3298 20.4541 19.1182 20.4287C18.9066 20.3949 18.7331 20.3441 18.5977 20.2764C18.4622 20.2087 18.3945 20.0986 18.3945 19.9463Z" fill="#C11D1D"/>
<path d="M18.585 3.64551L19.0811 4.51375L19.0684 4.52099L19.0555 4.52786L18.585 3.64551ZM19.0547 3.48047L19.3071 4.44809L19.2872 4.45328L19.2671 4.45765L19.0547 3.48047ZM19.7021 3.36621L19.8487 4.35541L19.8287 4.35837L19.8087 4.36052L19.7021 3.36621ZM20.375 3.29004L20.4896 4.28345L20.4707 4.28563L20.4517 4.28709L20.375 3.29004ZM21.3906 3.16309L21.1033 2.20526L21.2065 2.1743L21.3139 2.16603L21.3906 3.16309ZM21.4414 2.8584L21.2245 3.83459L21.1889 3.82669L21.1541 3.81622L21.4414 2.8584ZM9.60938 2.5918V3.5918H9.19516L8.90227 3.2989L9.60938 2.5918ZM8.94922 2.76953L9.91545 3.02719L9.90483 3.06704L9.89096 3.10587L8.94922 2.76953ZM8.88574 3.09961H9.88574V3.13801L9.8828 3.17631L8.88574 3.09961ZM8.77148 4.45801L9.76738 4.54854L9.76723 4.55021L8.77148 4.45801ZM8.79688 6.04492L9.54949 5.38638L9.55613 5.39413L8.79688 6.04492ZM9.22852 6.0957L9.67573 6.99013L9.62878 7.0136L9.57964 7.03203L9.22852 6.0957ZM9.41895 5.8418L8.50279 5.44098L8.50829 5.42841L8.51413 5.416L9.41895 5.8418ZM10.2441 4.38184L11.0385 4.98929L11.0295 5.00099L11.0203 5.01243L10.2441 4.38184ZM10.5615 4.06445L11.1333 4.88485L11.1248 4.89077L11.1162 4.8965L10.5615 4.06445ZM12.3516 3.36621L12.5116 4.35332L12.5075 4.35397L12.3516 3.36621ZM13.3164 3.27734L13.3676 4.27603L13.3548 4.27669L13.342 4.27702L13.3164 3.27734ZM15.7412 3.35352L15.3404 4.26967L15.3278 4.26417L15.3154 4.25833L15.7412 3.35352ZM15.6523 11.25L16.0237 12.1785L15.7755 12.2778L15.5109 12.2399L15.6523 11.25ZM13.5703 11.1738L13.5973 10.1742L13.5981 10.1742L13.5703 11.1738ZM12.6943 11.1104L12.5703 12.1026L12.5551 12.1007L12.54 12.0984L12.6943 11.1104ZM11.9707 10.9326L12.2978 9.98756L12.3094 9.99173L11.9707 10.9326ZM11.4756 10.6152L10.6995 11.2458L10.6697 11.2092L10.6435 11.1699L11.4756 10.6152ZM11.374 10.374L12.3074 10.015L12.3197 10.0471L12.3298 10.0799L11.374 10.374ZM11.1709 9.66309L12.1267 9.369L12.1372 9.40328L12.1453 9.43823L11.1709 9.66309ZM11.082 9.42188L10.1876 9.86909L10.1558 9.80552L10.1333 9.7381L11.082 9.42188ZM11.0059 9.01562L10.0076 9.07435L10.0074 9.0711L11.0059 9.01562ZM10.2061 8.36816L11.1795 8.5972L11.1732 8.62396L11.1654 8.65033L10.2061 8.36816ZM10.1172 13.9668L9.12491 13.8428L9.13719 13.7445L9.1685 13.6506L10.1172 13.9668ZM10.0918 14.335H11.0918V14.3766L11.0883 14.418L10.0918 14.335ZM10.1553 14.792L10.9873 14.2373L11.0098 14.271L11.0294 14.3063L10.1553 14.792ZM10.3584 14.9443V15.9443H10.2245L10.0953 15.9091L10.3584 14.9443ZM10.625 14.6904L11.5584 15.0494L11.5535 15.0618L10.625 14.6904ZM10.79 13.9922L11.7851 14.0917L11.7847 14.0951L10.79 13.9922ZM10.917 13.2686L11.8872 13.5111L11.885 13.5195L10.917 13.2686ZM11.1963 12.6211L12.0601 13.125L12.0475 13.1465L12.0339 13.1674L11.1963 12.6211ZM11.793 12.126L12.2402 13.0204L12.2236 13.0287L12.2068 13.0363L11.793 12.126ZM12.6562 11.9229L12.8122 12.9106L12.7841 12.9151L12.7558 12.9179L12.6562 11.9229ZM13.1387 11.8721L13.2434 12.8666L13.2173 12.8693L13.1912 12.8707L13.1387 11.8721ZM13.9258 11.834L13.9674 12.8331L13.9657 12.8332L13.9258 11.834ZM15.2461 11.8467L15.2045 12.8458L15.1837 12.8449L15.163 12.8432L15.2461 11.8467ZM15.6143 11.9102L16.239 11.1293L16.2592 11.1455L16.2786 11.1627L15.6143 11.9102ZM15.8047 19.9082H16.8047V19.9439L16.8021 19.9795L15.8047 19.9082ZM15.5762 20.1748L15.9569 21.0995L15.9251 21.1126L15.8924 21.1235L15.5762 20.1748ZM15.0303 20.2891L15.1494 21.2819L15.1449 21.2825L15.0303 20.2891ZM13.6465 20.3906L13.7656 21.3835L13.746 21.3859L13.7262 21.3874L13.6465 20.3906ZM13.126 20.5049L13.5268 21.421L13.5168 21.4254L13.5067 21.4296L13.126 20.5049ZM12.9863 20.9365L13.541 20.1045L13.5771 20.1285L13.611 20.1557L12.9863 20.9365ZM13.1514 21L13.2754 20.0077L13.3353 20.0152L13.3939 20.0299L13.1514 21ZM13.3672 21.0254V20.0254H13.4294L13.4912 20.0331L13.3672 21.0254ZM15.7666 21L15.8192 21.9986L15.806 21.9993L15.7929 21.9997L15.7666 21ZM16.7061 20.9619L16.7615 21.9604L16.7477 21.9611L16.7338 21.9615L16.7061 20.9619ZM18.2549 20.9619L18.2114 21.961L18.1898 21.96L18.1683 21.9582L18.2549 20.9619ZM18.8643 21L18.8006 21.998L18.7925 21.9975L18.7845 21.9968L18.8643 21ZM20.8447 21.0127L20.5285 20.064L20.6029 20.0392L20.6803 20.0263L20.8447 21.0127ZM20.5527 20.6064L20.7623 19.6286L20.772 19.6307L20.7818 19.633L20.5527 20.6064ZM19.8164 20.5049L19.7499 21.5027L19.7334 21.5016L19.7169 21.4999L19.8164 20.5049ZM19.1182 20.4287L18.999 21.4216L18.9795 21.4193L18.9602 21.4162L19.1182 20.4287ZM17.3945 19.9463V3.88672H19.3945V19.9463H17.3945ZM17.3945 3.88672C17.3945 3.24718 17.8552 2.90139 18.1144 2.76315L19.0555 4.52786C19.068 4.52122 19.146 4.47881 19.227 4.37624C19.3198 4.25876 19.3945 4.08787 19.3945 3.88672H17.3945ZM18.0888 2.77726C18.3263 2.64158 18.5894 2.55826 18.8423 2.50329L19.2671 4.45765C19.2024 4.47171 19.1553 4.48549 19.1227 4.49693C19.0898 4.50851 19.078 4.51549 19.0811 4.51375L18.0888 2.77726ZM18.8023 2.51285C19.0526 2.44754 19.3181 2.40163 19.5956 2.3719L19.8087 4.36052C19.6122 4.38157 19.4461 4.41183 19.3071 4.44809L18.8023 2.51285ZM19.5556 2.37701C19.8062 2.33988 20.0538 2.31179 20.2983 2.29298L20.4517 4.28709C20.2561 4.30214 20.0551 4.32484 19.8487 4.35541L19.5556 2.37701ZM20.2604 2.29663C20.487 2.27048 20.6983 2.24845 20.8938 2.23067L21.0749 4.22246C20.8981 4.23853 20.7031 4.25882 20.4896 4.28345L20.2604 2.29663ZM20.8938 2.23067C20.9727 2.2235 21.0307 2.21631 21.0712 2.20999C21.1156 2.20306 21.1214 2.19982 21.1033 2.20526L21.678 4.12091C21.4912 4.17695 21.2711 4.20462 21.0749 4.22246L20.8938 2.23067ZM21.3139 2.16603C21.1918 2.17543 20.9526 2.23044 20.7587 2.4542C20.5746 2.66667 20.5557 2.88923 20.5557 2.97266H22.5557C22.5557 3.17457 22.5092 3.48812 22.2701 3.76406C22.0212 4.0513 21.6995 4.14228 21.4673 4.16014L21.3139 2.16603ZM20.5557 2.97266C20.5557 3.17913 20.6319 3.41864 20.82 3.60676C20.983 3.76974 21.1558 3.81931 21.2245 3.83459L21.6583 1.88221C21.8032 1.91441 22.0331 1.99149 22.2342 2.19255C22.4604 2.41877 22.5557 2.70694 22.5557 2.97266H20.5557ZM21.1541 3.81622C21.1416 3.81249 21.1409 3.81297 21.1502 3.81462C21.1589 3.81616 21.1854 3.82031 21.2256 3.82031V1.82031C21.4173 1.82031 21.5919 1.85953 21.7288 1.90057L21.1541 3.81622ZM21.2256 3.82031H17.4551V1.82031H21.2256V3.82031ZM17.4551 3.82031C17.1861 3.82031 16.8603 3.80605 16.4841 3.7798L16.6233 1.78465C16.975 1.80919 17.2501 1.82031 17.4551 1.82031V3.82031ZM16.4841 3.7798C16.1234 3.75463 15.7369 3.72943 15.3246 3.70419L15.4469 1.70792C15.864 1.73346 16.2562 1.75904 16.6233 1.78465L16.4841 3.7798ZM15.3246 3.70419C14.9107 3.67885 14.4884 3.6535 14.0575 3.62816L14.1749 1.63161C14.6073 1.65704 15.0313 1.68248 15.4469 1.70792L15.3246 3.70419ZM14.0575 3.62816C13.6424 3.60374 13.2602 3.5918 12.9102 3.5918V1.5918C13.305 1.5918 13.7268 1.60525 14.1749 1.63161L14.0575 3.62816ZM12.9102 3.5918H9.60938V1.5918H12.9102V3.5918ZM8.90227 3.2989C8.97997 3.3766 9.0557 3.42652 9.10757 3.45645C9.16112 3.48734 9.20828 3.5078 9.24177 3.52083C9.30658 3.54603 9.35949 3.55846 9.38556 3.56405C9.43845 3.57538 9.47652 3.57837 9.4819 3.57882C9.49794 3.58016 9.49447 3.5791 9.45703 3.5791V1.5791C9.51269 1.5791 9.58116 1.58016 9.64799 1.58573C9.67875 1.58829 9.73692 1.59393 9.80462 1.60844C9.8381 1.61561 9.89709 1.62976 9.96666 1.65682C10.0196 1.67739 10.1714 1.73964 10.3165 1.88469L8.90227 3.2989ZM9.45703 3.5791H9.19043V1.5791H9.45703V3.5791ZM9.19043 3.5791C9.29669 3.5791 9.4794 3.54988 9.65456 3.41159C9.8263 3.27601 9.89258 3.11297 9.91545 3.02719L7.98298 2.51187C8.03971 2.29914 8.16312 2.04089 8.41527 1.84183C8.67083 1.64007 8.95721 1.5791 9.19043 1.5791V3.5791ZM9.89096 3.10587C9.88491 3.1228 9.88347 3.13053 9.88362 3.12977C9.8838 3.12884 9.88574 3.11831 9.88574 3.09961H7.88574C7.88574 2.85976 7.93546 2.63483 8.00748 2.43319L9.89096 3.10587ZM9.8828 3.17631C9.84857 3.62129 9.81009 4.07871 9.76738 4.54854L7.77559 4.36747C7.81751 3.90632 7.85521 3.45814 7.88869 3.02291L9.8828 3.17631ZM9.76723 4.55021C9.72762 4.97789 9.70801 5.39567 9.70801 5.80371H7.70801C7.70801 5.33154 7.73071 4.85219 7.77574 4.36581L9.76723 4.55021ZM9.70801 5.80371C9.70801 5.74251 9.69793 5.66783 9.66857 5.58813C9.63902 5.50792 9.59628 5.43994 9.54945 5.38642L8.0443 6.70343C7.81957 6.4466 7.70801 6.1298 7.70801 5.80371H9.70801ZM9.55613 5.39413C9.46928 5.2928 9.36232 5.22149 9.25454 5.17957C9.15279 5.14 9.06957 5.13379 9.02539 5.13379V7.13379C8.72597 7.13379 8.33208 7.03925 8.03762 6.69571L9.55613 5.39413ZM9.02539 5.13379C8.96524 5.13379 8.91427 5.14554 8.87739 5.15937L9.57964 7.03203C9.40734 7.09664 9.22096 7.13379 9.02539 7.13379V5.13379ZM8.7813 5.20128C8.63235 5.27575 8.5535 5.37138 8.5269 5.40684C8.49817 5.44515 8.49288 5.46364 8.50279 5.44098L10.3351 6.24262C10.2586 6.4174 10.0762 6.78991 9.67573 6.99013L8.7813 5.20128ZM8.51413 5.416C8.58262 5.27046 8.65946 5.10824 8.7446 4.92944L10.5503 5.78931C10.4662 5.96597 10.3907 6.12537 10.3238 6.26759L8.51413 5.416ZM8.7446 4.92944C8.84303 4.72273 8.95128 4.52101 9.06926 4.32437L10.7843 5.35336C10.6991 5.49526 10.6212 5.64055 10.5503 5.78931L8.7446 4.92944ZM9.06926 4.32437C9.19207 4.1197 9.32458 3.92779 9.46803 3.75124L11.0203 5.01243C10.9436 5.10672 10.8646 5.21949 10.7843 5.35336L9.06926 4.32437ZM9.44978 3.77439C9.59756 3.58114 9.78063 3.3832 10.0068 3.2324L11.1162 4.8965C11.1309 4.88674 11.1294 4.88536 11.1131 4.90169C11.0972 4.91764 11.072 4.94542 11.0385 4.98929L9.44978 3.77439ZM9.98973 3.24405C10.333 3.00481 10.6954 2.81161 11.0766 2.67L11.773 4.54485C11.5618 4.62329 11.3486 4.73478 11.1333 4.88485L9.98973 3.24405ZM11.0766 2.67C11.4369 2.53616 11.8104 2.43927 12.1956 2.37845L12.5075 4.35397C12.2495 4.39471 12.0051 4.45863 11.773 4.54485L11.0766 2.67ZM12.1915 2.37911C12.5509 2.32082 12.9175 2.28724 13.2908 2.27767L13.342 4.27702C13.0552 4.28437 12.7785 4.31003 12.5116 4.35332L12.1915 2.37911ZM13.2652 2.27866C13.6131 2.26081 13.9688 2.25195 14.332 2.25195V4.25195C14.0013 4.25195 13.6798 4.26002 13.3676 4.27603L13.2652 2.27866ZM14.332 2.25195H15.208V4.25195H14.332V2.25195ZM15.208 2.25195C15.5204 2.25195 15.8535 2.30118 16.167 2.4487L15.3154 4.25833C15.3411 4.27044 15.3188 4.25195 15.208 4.25195V2.25195ZM16.142 2.43736C16.8573 2.75029 16.9443 3.47876 16.9443 3.82324H14.9443C14.9443 3.77213 14.9356 3.81952 14.9757 3.91229C15.0257 4.02791 15.1406 4.18227 15.3404 4.26967L16.142 2.43736ZM16.9443 3.82324V10.958H14.9443V3.82324H16.9443ZM16.9443 10.958C16.9443 11.1422 16.9058 11.3582 16.7873 11.5689C16.6669 11.7829 16.4953 11.9355 16.3157 12.0353L15.3444 10.287C15.2411 10.3444 15.1265 10.442 15.0442 10.5884C14.9638 10.7313 14.9443 10.8669 14.9443 10.958H16.9443ZM16.3157 12.0353C16.2295 12.0832 16.126 12.1376 16.0237 12.1785L15.281 10.3215C15.2677 10.3268 15.2665 10.3281 15.2813 10.3207C15.2947 10.314 15.3153 10.3031 15.3444 10.287L16.3157 12.0353ZM15.5109 12.2399C15.3703 12.2199 15.2134 12.2056 15.0394 12.1984L15.1227 10.2001C15.3549 10.2098 15.579 10.2294 15.7938 10.2601L15.5109 12.2399ZM15.0394 12.1984C14.8496 12.1904 14.6646 12.1865 14.4844 12.1865V10.1865C14.6935 10.1865 14.9063 10.1911 15.1227 10.2001L15.0394 12.1984ZM14.4844 12.1865C14.1704 12.1865 13.8565 12.1822 13.5425 12.1734L13.5981 10.1742C13.8935 10.1824 14.1889 10.1865 14.4844 10.1865V12.1865ZM13.5433 12.1735C13.2023 12.1642 12.8776 12.141 12.5703 12.1026L12.8184 10.1181C13.0527 10.1474 13.312 10.1665 13.5973 10.1742L13.5433 12.1735ZM12.54 12.0984C12.2194 12.0483 11.9147 11.9753 11.632 11.8735L12.3094 9.99173C12.4499 10.0423 12.6276 10.0878 12.8487 10.1223L12.54 12.0984ZM11.6436 11.8776C11.3048 11.7603 10.9601 11.5666 10.6995 11.2458L12.2517 9.98464C12.2319 9.96029 12.2177 9.95177 12.2216 9.95426C12.2265 9.95743 12.2489 9.97072 12.2978 9.98763L11.6436 11.8776ZM10.6435 11.1699C10.5278 10.9963 10.4601 10.8041 10.4182 10.6681L12.3298 10.0799C12.3346 10.0956 12.3386 10.1074 12.3416 10.116C12.3431 10.1202 12.3443 10.1234 12.3452 10.1256C12.346 10.1278 12.3465 10.1288 12.3464 10.1288C12.3464 10.1288 12.3459 10.1274 12.3447 10.1249C12.3435 10.1224 12.3416 10.1183 12.3388 10.113C12.3336 10.1029 12.3235 10.0844 12.3076 10.0605L10.6435 11.1699ZM10.4407 10.733C10.3843 10.5863 10.3355 10.4337 10.2935 10.2762L12.226 9.76089C12.2517 9.85734 12.2792 9.94169 12.3074 10.015L10.4407 10.733ZM10.2935 10.2762C10.2572 10.1401 10.2248 10.0105 10.1965 9.88795L12.1453 9.43823C12.1678 9.53568 12.1946 9.64312 12.226 9.76089L10.2935 10.2762ZM10.2151 9.95717C10.2019 9.91406 10.1918 9.88449 10.1849 9.86597C10.1816 9.85698 10.1799 9.85269 10.1797 9.85224C10.1793 9.85145 10.1819 9.85773 10.1876 9.86909L11.9765 8.97466C12.0404 9.10261 12.0895 9.24833 12.1267 9.369L10.2151 9.95717ZM10.1333 9.7381C10.0612 9.52172 10.0208 9.29916 10.0076 9.07435L12.0041 8.9569C12.0078 9.01985 12.0182 9.06812 12.0307 9.10565L10.1333 9.7381ZM10.0074 9.0711C10.0001 8.93972 9.98951 8.82608 9.97655 8.72884L11.959 8.46452C11.9799 8.62119 11.9947 8.78684 12.0043 8.96015L10.0074 9.0711ZM9.97655 8.72884C9.9758 8.72326 9.98226 8.77844 10.0343 8.85276L11.6727 7.70583C11.8433 7.94943 11.9259 8.21619 11.959 8.46452L9.97655 8.72884ZM10.0343 8.85276C10.1276 8.98605 10.2499 9.06919 10.3583 9.11256C10.456 9.15164 10.5255 9.15234 10.5361 9.15234V7.15234C10.8511 7.15234 11.3489 7.24321 11.6727 7.70583L10.0343 8.85276ZM10.5361 9.15234C10.5599 9.15234 10.699 9.14935 10.8612 9.04327C11.0483 8.92094 11.1455 8.74142 11.1795 8.5972L9.23264 8.13912C9.30042 7.85103 9.4696 7.5636 9.76672 7.36933C10.039 7.19131 10.3261 7.15234 10.5361 7.15234V9.15234ZM11.1654 8.65033C11.1505 8.70113 11.1426 8.75414 11.1426 8.8125H9.14258C9.14258 8.56617 9.17699 8.32296 9.24669 8.086L11.1654 8.65033ZM11.1426 8.8125V13.6875H9.14258V8.8125H11.1426ZM11.1426 13.6875C11.1426 13.6876 11.1426 13.6877 11.1426 13.6877C11.1426 13.6878 11.1426 13.6879 11.1426 13.688C11.1426 13.6881 11.1426 13.6882 11.1426 13.6882C11.1426 13.6883 11.1426 13.6884 11.1426 13.6885C11.1426 13.6886 11.1426 13.6887 11.1426 13.6887C11.1426 13.6888 11.1426 13.6889 11.1426 13.689C11.1426 13.6891 11.1426 13.6892 11.1426 13.6892C11.1426 13.6893 11.1426 13.6894 11.1426 13.6895C11.1426 13.6896 11.1426 13.6897 11.1426 13.6897C11.1426 13.6898 11.1426 13.6899 11.1426 13.69C11.1426 13.6901 11.1426 13.6902 11.1426 13.6902C11.1426 13.6903 11.1426 13.6904 11.1426 13.6905C11.1426 13.6906 11.1426 13.6906 11.1426 13.6907C11.1426 13.6908 11.1426 13.6909 11.1426 13.691C11.1426 13.6911 11.1426 13.6911 11.1426 13.6912C11.1426 13.6913 11.1426 13.6914 11.1426 13.6915C11.1426 13.6916 11.1426 13.6916 11.1426 13.6917C11.1426 13.6918 11.1426 13.6919 11.1426 13.692C11.1426 13.6921 11.1426 13.6921 11.1426 13.6922C11.1426 13.6923 11.1426 13.6924 11.1426 13.6925C11.1426 13.6926 11.1426 13.6926 11.1426 13.6927C11.1426 13.6928 11.1426 13.6929 11.1426 13.693C11.1426 13.6931 11.1426 13.6931 11.1426 13.6932C11.1426 13.6933 11.1426 13.6934 11.1426 13.6935C11.1426 13.6936 11.1426 13.6936 11.1426 13.6937C11.1426 13.6938 11.1426 13.6939 11.1426 13.694C11.1426 13.6941 11.1426 13.6941 11.1426 13.6942C11.1426 13.6943 11.1426 13.6944 11.1426 13.6945C11.1426 13.6946 11.1426 13.6946 11.1426 13.6947C11.1426 13.6948 11.1426 13.6949 11.1426 13.695C11.1426 13.6951 11.1426 13.6951 11.1426 13.6952C11.1426 13.6953 11.1426 13.6954 11.1426 13.6955C11.1426 13.6956 11.1426 13.6957 11.1426 13.6957C11.1426 13.6958 11.1426 13.6959 11.1426 13.696C11.1426 13.6961 11.1426 13.6962 11.1426 13.6962C11.1426 13.6963 11.1426 13.6964 11.1426 13.6965C11.1426 13.6966 11.1426 13.6967 11.1426 13.6967C11.1426 13.6968 11.1426 13.6969 11.1426 13.697C11.1426 13.6971 11.1426 13.6972 11.1426 13.6972C11.1426 13.6973 11.1426 13.6974 11.1426 13.6975C11.1426 13.6976 11.1426 13.6977 11.1426 13.6977C11.1426 13.6978 11.1426 13.6979 11.1426 13.698C11.1426 13.6981 11.1426 13.6982 11.1426 13.6983C11.1426 13.6983 11.1426 13.6984 11.1426 13.6985C11.1426 13.6986 11.1426 13.6987 11.1426 13.6988C11.1426 13.6988 11.1426 13.6989 11.1426 13.699C11.1426 13.6991 11.1426 13.6992 11.1426 13.6993C11.1426 13.6993 11.1426 13.6994 11.1426 13.6995C11.1426 13.6996 11.1426 13.6997 11.1426 13.6998C11.1426 13.6999 11.1426 13.6999 11.1426 13.7C11.1426 13.7001 11.1426 13.7002 11.1426 13.7003C11.1426 13.7004 11.1426 13.7004 11.1426 13.7005C11.1426 13.7006 11.1426 13.7007 11.1426 13.7008C11.1426 13.7009 11.1426 13.7009 11.1426 13.701C11.1426 13.7011 11.1426 13.7012 11.1426 13.7013C11.1426 13.7014 11.1426 13.7015 11.1426 13.7015C11.1426 13.7016 11.1426 13.7017 11.1426 13.7018C11.1426 13.7019 11.1426 13.702 11.1426 13.702C11.1426 13.7021 11.1426 13.7022 11.1426 13.7023C11.1426 13.7024 11.1426 13.7025 11.1426 13.7026C11.1426 13.7026 11.1426 13.7027 11.1426 13.7028C11.1426 13.7029 11.1426 13.703 11.1426 13.7031C11.1426 13.7031 11.1426 13.7032 11.1426 13.7033C11.1426 13.7034 11.1426 13.7035 11.1426 13.7036C11.1426 13.7037 11.1426 13.7037 11.1426 13.7038C11.1426 13.7039 11.1426 13.704 11.1426 13.7041C11.1426 13.7042 11.1426 13.7042 11.1426 13.7043C11.1426 13.7044 11.1426 13.7045 11.1426 13.7046C11.1426 13.7047 11.1426 13.7048 11.1426 13.7048C11.1426 13.7049 11.1426 13.705 11.1426 13.7051C11.1426 13.7052 11.1426 13.7053 11.1426 13.7053C11.1426 13.7054 11.1426 13.7055 11.1426 13.7056C11.1426 13.7057 11.1426 13.7058 11.1426 13.7059C11.1426 13.7059 11.1426 13.706 11.1426 13.7061C11.1426 13.7062 11.1426 13.7063 11.1426 13.7064C11.1426 13.7065 11.1426 13.7065 11.1426 13.7066C11.1426 13.7067 11.1426 13.7068 11.1426 13.7069C11.1426 13.707 11.1426 13.707 11.1426 13.7071C11.1426 13.7072 11.1426 13.7073 11.1426 13.7074C11.1426 13.7075 11.1426 13.7076 11.1426 13.7076C11.1426 13.7077 11.1426 13.7078 11.1426 13.7079C11.1426 13.708 11.1426 13.7081 11.1426 13.7082C11.1426 13.7082 11.1426 13.7083 11.1426 13.7084C11.1426 13.7085 11.1426 13.7086 11.1426 13.7087C11.1426 13.7088 11.1426 13.7088 11.1426 13.7089C11.1426 13.709 11.1426 13.7091 11.1426 13.7092C11.1426 13.7093 11.1426 13.7094 11.1426 13.7094C11.1426 13.7095 11.1426 13.7096 11.1426 13.7097C11.1426 13.7098 11.1426 13.7099 11.1426 13.71C11.1426 13.71 11.1426 13.7101 11.1426 13.7102C11.1426 13.7103 11.1426 13.7104 11.1426 13.7105C11.1426 13.7106 11.1426 13.7106 11.1426 13.7107C11.1426 13.7108 11.1426 13.7109 11.1426 13.711C11.1426 13.7111 11.1426 13.7112 11.1426 13.7112C11.1426 13.7113 11.1426 13.7114 11.1426 13.7115C11.1426 13.7116 11.1426 13.7117 11.1426 13.7118C11.1426 13.7118 11.1426 13.7119 11.1426 13.712C11.1426 13.7121 11.1426 13.7122 11.1426 13.7123C11.1426 13.7124 11.1426 13.7124 11.1426 13.7125C11.1426 13.7126 11.1426 13.7127 11.1426 13.7128C11.1426 13.7129 11.1426 13.713 11.1426 13.713C11.1426 13.7131 11.1426 13.7132 11.1426 13.7133C11.1426 13.7134 11.1426 13.7135 11.1426 13.7136C11.1426 13.7136 11.1426 13.7137 11.1426 13.7138C11.1426 13.7139 11.1426 13.714 11.1426 13.7141C11.1426 13.7142 11.1426 13.7142 11.1426 13.7143C11.1426 13.7144 11.1426 13.7145 11.1426 13.7146C11.1426 13.7147 11.1426 13.7148 11.1426 13.7148C11.1426 13.7149 11.1426 13.715 11.1426 13.7151C11.1426 13.7152 11.1426 13.7153 11.1426 13.7154C11.1426 13.7154 11.1426 13.7155 11.1426 13.7156C11.1426 13.7157 11.1426 13.7158 11.1426 13.7159C11.1426 13.716 11.1426 13.7161 11.1426 13.7161C11.1426 13.7162 11.1426 13.7163 11.1426 13.7164C11.1426 13.7165 11.1426 13.7166 11.1426 13.7167C11.1426 13.7167 11.1426 13.7168 11.1426 13.7169C11.1426 13.717 11.1426 13.7171 11.1426 13.7172C11.1426 13.7173 11.1426 13.7173 11.1426 13.7174C11.1426 13.7175 11.1426 13.7176 11.1426 13.7177C11.1426 13.7178 11.1426 13.7179 11.1426 13.718C11.1426 13.718 11.1426 13.7181 11.1426 13.7182C11.1426 13.7183 11.1426 13.7184 11.1426 13.7185C11.1426 13.7186 11.1426 13.7186 11.1426 13.7187C11.1426 13.7188 11.1426 13.7189 11.1426 13.719C11.1426 13.7191 11.1426 13.7192 11.1426 13.7193C11.1426 13.7193 11.1426 13.7194 11.1426 13.7195C11.1426 13.7196 11.1426 13.7197 11.1426 13.7198C11.1426 13.7199 11.1426 13.7199 11.1426 13.72C11.1426 13.7201 11.1426 13.7202 11.1426 13.7203C11.1426 13.7204 11.1426 13.7205 11.1426 13.7206C11.1426 13.7206 11.1426 13.7207 11.1426 13.7208C11.1426 13.7209 11.1426 13.721 11.1426 13.7211C11.1426 13.7212 11.1426 13.7212 11.1426 13.7213C11.1426 13.7214 11.1426 13.7215 11.1426 13.7216C11.1426 13.7217 11.1426 13.7218 11.1426 13.7219C11.1426 13.7219 11.1426 13.722 11.1426 13.7221C11.1426 13.7222 11.1426 13.7223 11.1426 13.7224C11.1426 13.7225 11.1426 13.7226 11.1426 13.7226C11.1426 13.7227 11.1426 13.7228 11.1426 13.7229C11.1426 13.723 11.1426 13.7231 11.1426 13.7232C11.1426 13.7233 11.1426 13.7233 11.1426 13.7234C11.1426 13.7235 11.1426 13.7236 11.1426 13.7237C11.1426 13.7238 11.1426 13.7239 11.1426 13.7239C11.1426 13.724 11.1426 13.7241 11.1426 13.7242C11.1426 13.7243 11.1426 13.7244 11.1426 13.7245C11.1426 13.7246 11.1426 13.7246 11.1426 13.7247C11.1426 13.7248 11.1426 13.7249 11.1426 13.725C11.1426 13.7251 11.1426 13.7252 11.1426 13.7253C11.1426 13.7253 11.1426 13.7254 11.1426 13.7255C11.1426 13.7256 11.1426 13.7257 11.1426 13.7258C11.1426 13.7259 11.1426 13.726 11.1426 13.726C11.1426 13.7261 11.1426 13.7262 11.1426 13.7263C11.1426 13.7264 11.1426 13.7265 11.1426 13.7266C11.1426 13.7267 11.1426 13.7267 11.1426 13.7268C11.1426 13.7269 11.1426 13.727 11.1426 13.7271C11.1426 13.7272 11.1426 13.7273 11.1426 13.7274C11.1426 13.7274 11.1426 13.7275 11.1426 13.7276C11.1426 13.7277 11.1426 13.7278 11.1426 13.7279C11.1426 13.728 11.1426 13.7281 11.1426 13.7281C11.1426 13.7282 11.1426 13.7283 11.1426 13.7284C11.1426 13.7285 11.1426 13.7286 11.1426 13.7287C11.1426 13.7288 11.1426 13.7289 11.1426 13.7289C11.1426 13.729 11.1426 13.7291 11.1426 13.7292C11.1426 13.7293 11.1426 13.7294 11.1426 13.7295C11.1426 13.7296 11.1426 13.7296 11.1426 13.7297C11.1426 13.7298 11.1426 13.7299 11.1426 13.73C11.1426 13.7301 11.1426 13.7302 11.1426 13.7303C11.1426 13.7303 11.1426 13.7304 11.1426 13.7305C11.1426 13.7306 11.1426 13.7307 11.1426 13.7308C11.1426 13.7309 11.1426 13.731 11.1426 13.7311C11.1426 13.7311 11.1426 13.7312 11.1426 13.7313C11.1426 13.7314 11.1426 13.7315 11.1426 13.7316C11.1426 13.7317 11.1426 13.7318 11.1426 13.7318C11.1426 13.7319 11.1426 13.732 11.1426 13.7321C11.1426 13.7322 11.1426 13.7323 11.1426 13.7324C11.1426 13.7325 11.1426 13.7326 11.1426 13.7326C11.1426 13.7327 11.1426 13.7328 11.1426 13.7329C11.1426 13.733 11.1426 13.7331 11.1426 13.7332C11.1426 13.7333 11.1426 13.7333 11.1426 13.7334C11.1426 13.7335 11.1426 13.7336 11.1426 13.7337C11.1426 13.7338 11.1426 13.7339 11.1426 13.734C11.1426 13.7341 11.1426 13.7341 11.1426 13.7342C11.1426 13.7343 11.1426 13.7344 11.1426 13.7345C11.1426 13.7346 11.1426 13.7347 11.1426 13.7348C11.1426 13.7349 11.1426 13.7349 11.1426 13.735C11.1426 13.7351 11.1426 13.7352 11.1426 13.7353C11.1426 13.7354 11.1426 13.7355 11.1426 13.7356C11.1426 13.7356 11.1426 13.7357 11.1426 13.7358C11.1426 13.7359 11.1426 13.736 11.1426 13.7361C11.1426 13.7362 11.1426 13.7363 11.1426 13.7364C11.1426 13.7364 11.1426 13.7365 11.1426 13.7366C11.1426 13.7367 11.1426 13.7368 11.1426 13.7369C11.1426 13.737 11.1426 13.7371 11.1426 13.7372C11.1426 13.7372 11.1426 13.7373 11.1426 13.7374C11.1426 13.7375 11.1426 13.7376 11.1426 13.7377C11.1426 13.7378 11.1426 13.7379 11.1426 13.738C11.1426 13.738 11.1426 13.7381 11.1426 13.7382C11.1426 13.7383 11.1426 13.7384 11.1426 13.7385C11.1426 13.7386 11.1426 13.7387 11.1426 13.7388C11.1426 13.7389 11.1426 13.7389 11.1426 13.739C11.1426 13.7391 11.1426 13.7392 11.1426 13.7393C11.1426 13.7394 11.1426 13.7395 11.1426 13.7396C11.1426 13.7397 11.1426 13.7397 11.1426 13.7398C11.1426 13.7399 11.1426 13.74 11.1426 13.7401C11.1426 13.7402 11.1426 13.7403 11.1426 13.7404C11.1426 13.7405 11.1426 13.7405 11.1426 13.7406C11.1426 13.7407 11.1426 13.7408 11.1426 13.7409C11.1426 13.741 11.1426 13.7411 11.1426 13.7412C11.1426 13.7413 11.1426 13.7413 11.1426 13.7414C11.1426 13.7415 11.1426 13.7416 11.1426 13.7417C11.1426 13.7418 11.1426 13.7419 11.1426 13.742C11.1426 13.7421 11.1426 13.7422 11.1426 13.7422C11.1426 13.7423 11.1426 13.7424 11.1426 13.7425C11.1426 13.7426 11.1426 13.7427 11.1426 13.7428C11.1426 13.7429 11.1426 13.743 11.1426 13.743C11.1426 13.7431 11.1426 13.7432 11.1426 13.7433C11.1426 13.7434 11.1426 13.7435 11.1426 13.7436C11.1426 13.7437 11.1426 13.7438 11.1426 13.7439C11.1426 13.7439 11.1426 13.744 11.1426 13.7441C11.1426 13.7442 11.1426 13.7443 11.1426 13.7444C11.1426 13.7445 11.1426 13.7446 11.1426 13.7447C11.1426 13.7448 11.1426 13.7448 11.1426 13.7449C11.1426 13.745 11.1426 13.7451 11.1426 13.7452C11.1426 13.7453 11.1426 13.7454 11.1426 13.7455C11.1426 13.7456 11.1426 13.7457 11.1426 13.7457C11.1426 13.7458 11.1426 13.7459 11.1426 13.746C11.1426 13.7461 11.1426 13.7462 11.1426 13.7463C11.1426 13.7464 11.1426 13.7465 11.1426 13.7466C11.1426 13.7466 11.1426 13.7467 11.1426 13.7468C11.1426 13.7469 11.1426 13.747 11.1426 13.7471C11.1426 13.7472 11.1426 13.7473 11.1426 13.7474C11.1426 13.7475 11.1426 13.7475 11.1426 13.7476C11.1426 13.7477 11.1426 13.7478 11.1426 13.7479C11.1426 13.748 11.1426 13.7481 11.1426 13.7482C11.1426 13.7483 11.1426 13.7484 11.1426 13.7484C11.1426 13.7485 11.1426 13.7486 11.1426 13.7487C11.1426 13.7488 11.1426 13.7489 11.1426 13.749C11.1426 13.7491 11.1426 13.7492 11.1426 13.7493C11.1426 13.7493 11.1426 13.7494 11.1426 13.7495C11.1426 13.7496 11.1426 13.7497 11.1426 13.7498C11.1426 13.7499 11.1426 13.75 11.1426 13.7501C11.1426 13.7502 11.1426 13.7503 11.1426 13.7503C11.1426 13.7504 11.1426 13.7505 11.1426 13.7506C11.1426 13.7507 11.1426 13.7508 11.1426 13.7509C11.1426 13.751 11.1426 13.7511 11.1426 13.7512C11.1426 13.7512 11.1426 13.7513 11.1426 13.7514C11.1426 13.7515 11.1426 13.7516 11.1426 13.7517C11.1426 13.7518 11.1426 13.7519 11.1426 13.752C11.1426 13.7521 11.1426 13.7522 11.1426 13.7522C11.1426 13.7523 11.1426 13.7524 11.1426 13.7525C11.1426 13.7526 11.1426 13.7527 11.1426 13.7528C11.1426 13.7529 11.1426 13.753 11.1426 13.7531C11.1426 13.7532 11.1426 13.7532 11.1426 13.7533C11.1426 13.7534 11.1426 13.7535 11.1426 13.7536C11.1426 13.7537 11.1426 13.7538 11.1426 13.7539C11.1426 13.754 11.1426 13.7541 11.1426 13.7542C11.1426 13.7542 11.1426 13.7543 11.1426 13.7544C11.1426 13.7545 11.1426 13.7546 11.1426 13.7547C11.1426 13.7548 11.1426 13.7549 11.1426 13.755C11.1426 13.7551 11.1426 13.7552 11.1426 13.7552C11.1426 13.7553 11.1426 13.7554 11.1426 13.7555C11.1426 13.7556 11.1426 13.7557 11.1426 13.7558C11.1426 13.7559 11.1426 13.756 11.1426 13.7561C11.1426 13.7562 11.1426 13.7562 11.1426 13.7563C11.1426 13.7564 11.1426 13.7565 11.1426 13.7566C11.1426 13.7567 11.1426 13.7568 11.1426 13.7569C11.1426 13.757 11.1426 13.7571 11.1426 13.7572C11.1426 13.7572 11.1426 13.7573 11.1426 13.7574C11.1426 13.7575 11.1426 13.7576 11.1426 13.7577C11.1426 13.7578 11.1426 13.7579 11.1426 13.758C11.1426 13.7581 11.1426 13.7582 11.1426 13.7583C11.1426 13.7583 11.1426 13.7584 11.1426 13.7585C11.1426 13.7586 11.1426 13.7587 11.1426 13.7588C11.1426 13.7589 11.1426 13.759 11.1426 13.7591C11.1426 13.7592 11.1426 13.7593 11.1426 13.7594C11.1426 13.7594 11.1426 13.7595 11.1426 13.7596C11.1426 13.7597 11.1426 13.7598 11.1426 13.7599C11.1426 13.76 11.1426 13.7601 11.1426 13.7602C11.1426 13.7603 11.1426 13.7604 11.1426 13.7604C11.1426 13.7605 11.1426 13.7606 11.1426 13.7607C11.1426 13.7608 11.1426 13.7609 11.1426 13.761C11.1426 13.7611 11.1426 13.7612 11.1426 13.7613C11.1426 13.7614 11.1426 13.7615 11.1426 13.7615C11.1426 13.7616 11.1426 13.7617 11.1426 13.7618C11.1426 13.7619 11.1426 13.762 11.1426 13.7621C11.1426 13.7622 11.1426 13.7623 11.1426 13.7624C11.1426 13.7625 11.1426 13.7626 11.1426 13.7627C11.1426 13.7627 11.1426 13.7628 11.1426 13.7629C11.1426 13.763 11.1426 13.7631 11.1426 13.7632C11.1426 13.7633 11.1426 13.7634 11.1426 13.7635C11.1426 13.7636 11.1426 13.7637 11.1426 13.7638C11.1426 13.7638 11.1426 13.7639 11.1426 13.764C11.1426 13.7641 11.1426 13.7642 11.1426 13.7643C11.1426 13.7644 11.1426 13.7645 11.1426 13.7646C11.1426 13.7647 11.1426 13.7648 11.1426 13.7649C11.1426 13.765 11.1426 13.765 11.1426 13.7651C11.1426 13.7652 11.1426 13.7653 11.1426 13.7654C11.1426 13.7655 11.1426 13.7656 11.1426 13.7657C11.1426 13.7658 11.1426 13.7659 11.1426 13.766C11.1426 13.7661 11.1426 13.7662 11.1426 13.7662C11.1426 13.7663 11.1426 13.7664 11.1426 13.7665C11.1426 13.7666 11.1426 13.7667 11.1426 13.7668C11.1426 13.7669 11.1426 13.767 11.1426 13.7671C11.1426 13.7672 11.1426 13.7673 11.1426 13.7674C11.1426 13.7674 11.1426 13.7675 11.1426 13.7676C11.1426 13.7677 11.1426 13.7678 11.1426 13.7679C11.1426 13.768 11.1426 13.7681 11.1426 13.7682C11.1426 13.7683 11.1426 13.7684 11.1426 13.7685C11.1426 13.7686 11.1426 13.7686 11.1426 13.7687C11.1426 13.7688 11.1426 13.7689 11.1426 13.769C11.1426 13.7691 11.1426 13.7692 11.1426 13.7693C11.1426 13.7694 11.1426 13.7695 11.1426 13.7696C11.1426 13.7697 11.1426 13.7698 11.1426 13.7699C11.1426 13.7699 11.1426 13.77 11.1426 13.7701C11.1426 13.7702 11.1426 13.7703 11.1426 13.7704C11.1426 13.7705 11.1426 13.7706 11.1426 13.7707C11.1426 13.7708 11.1426 13.7709 11.1426 13.771C11.1426 13.7711 11.1426 13.7712 11.1426 13.7712C11.1426 13.7713 11.1426 13.7714 11.1426 13.7715C11.1426 13.7716 11.1426 13.7717 11.1426 13.7718C11.1426 13.7719 11.1426 13.772 11.1426 13.7721C11.1426 13.7722 11.1426 13.7723 11.1426 13.7724C11.1426 13.7725 11.1426 13.7725 11.1426 13.7726C11.1426 13.7727 11.1426 13.7728 11.1426 13.7729C11.1426 13.773 11.1426 13.7731 11.1426 13.7732C11.1426 13.7733 11.1426 13.7734 11.1426 13.7735C11.1426 13.7736 11.1426 13.7737 11.1426 13.7738C11.1426 13.7739 11.1426 13.7739 11.1426 13.774C11.1426 13.7741 11.1426 13.7742 11.1426 13.7743C11.1426 13.7744 11.1426 13.7745 11.1426 13.7746C11.1426 13.7747 11.1426 13.7748 11.1426 13.7749C11.1426 13.775 11.1426 13.7751 11.1426 13.7752C11.1426 13.7753 11.1426 13.7753 11.1426 13.7754C11.1426 13.7755 11.1426 13.7756 11.1426 13.7757C11.1426 13.7758 11.1426 13.7759 11.1426 13.776C11.1426 13.7761 11.1426 13.7762 11.1426 13.7763C11.1426 13.7764 11.1426 13.7765 11.1426 13.7766C11.1426 13.7767 11.1426 13.7767 11.1426 13.7768C11.1426 13.7769 11.1426 13.777 11.1426 13.7771C11.1426 13.7772 11.1426 13.7773 11.1426 13.7774C11.1426 13.7775 11.1426 13.7776 11.1426 13.7777C11.1426 13.7778 11.1426 13.7779 11.1426 13.778C11.1426 13.7781 11.1426 13.7782 11.1426 13.7782C11.1426 13.7783 11.1426 13.7784 11.1426 13.7785C11.1426 13.7786 11.1426 13.7787 11.1426 13.7788C11.1426 13.7789 11.1426 13.779 11.1426 13.7791C11.1426 13.7792 11.1426 13.7793 11.1426 13.7794C11.1426 13.7795 11.1426 13.7796 11.1426 13.7797C11.1426 13.7797 11.1426 13.7798 11.1426 13.7799C11.1426 13.78 11.1426 13.7801 11.1426 13.7802C11.1426 13.7803 11.1426 13.7804 11.1426 13.7805C11.1426 13.7806 11.1426 13.7807 11.1426 13.7808C11.1426 13.7809 11.1426 13.781 11.1426 13.7811C11.1426 13.7812 11.1426 13.7813 11.1426 13.7813C11.1426 13.7814 11.1426 13.7815 11.1426 13.7816C11.1426 13.7817 11.1426 13.7818 11.1426 13.7819C11.1426 13.782 11.1426 13.7821 11.1426 13.7822C11.1426 13.7823 11.1426 13.7824 11.1426 13.7825C11.1426 13.7826 11.1426 13.7827 11.1426 13.7828C11.1426 13.7829 11.1426 13.7829 11.1426 13.783C11.1426 13.7831 11.1426 13.7832 11.1426 13.7833C11.1426 13.7834 11.1426 13.7835 11.1426 13.7836C11.1426 13.7837 11.1426 13.7838 11.1426 13.7839C11.1426 13.784 11.1426 13.7841 11.1426 13.7842C11.1426 13.7843 11.1426 13.7844 11.1426 13.7845C11.1426 13.7846 11.1426 13.7846 11.1426 13.7847C11.1426 13.7848 11.1426 13.7849 11.1426 13.785C11.1426 13.7851 11.1426 13.7852 11.1426 13.7853C11.1426 13.7854 11.1426 13.7855 11.1426 13.7856C11.1426 13.7857 11.1426 13.7858 11.1426 13.7859C11.1426 13.786 11.1426 13.7861 11.1426 13.7862C11.1426 13.7863 11.1426 13.7863 11.1426 13.7864C11.1426 13.7865 11.1426 13.7866 11.1426 13.7867C11.1426 13.7868 11.1426 13.7869 11.1426 13.787C11.1426 13.7871 11.1426 13.7872 11.1426 13.7873C11.1426 13.7874 11.1426 13.7875 11.1426 13.7876C11.1426 13.7877 11.1426 13.7878 11.1426 13.7879C11.1426 13.788 11.1426 13.7881 11.1426 13.7881C11.1426 13.7882 11.1426 13.7883 11.1426 13.7884C11.1426 13.7885 11.1426 13.7886 11.1426 13.7887C11.1426 13.7888 11.1426 13.7889 11.1426 13.789C11.1426 13.7891 11.1426 13.7892 11.1426 13.7893C11.1426 13.7894 11.1426 13.7895 11.1426 13.7896C11.1426 13.7897 11.1426 13.7898 11.1426 13.7899C11.1426 13.79 11.1426 13.79 11.1426 13.7901C11.1426 13.7902 11.1426 13.7903 11.1426 13.7904C11.1426 13.7905 11.1426 13.7906 11.1426 13.7907C11.1426 13.7908 11.1426 13.7909 11.1426 13.791C11.1426 13.7911 11.1426 13.7912 11.1426 13.7913C11.1426 13.7914 11.1426 13.7915 11.1426 13.7916C11.1426 13.7917 11.1426 13.7918 11.1426 13.7919C11.1426 13.7919 11.1426 13.792 11.1426 13.7921C11.1426 13.7922 11.1426 13.7923 11.1426 13.7924C11.1426 13.7925 11.1426 13.7926 11.1426 13.7927C11.1426 13.7928 11.1426 13.7929 11.1426 13.793C11.1426 13.7931 11.1426 13.7932 11.1426 13.7933C11.1426 13.7934 11.1426 13.7935 11.1426 13.7936C11.1426 13.7937 11.1426 13.7938 11.1426 13.7939C11.1426 13.794 11.1426 13.794 11.1426 13.7941C11.1426 13.7942 11.1426 13.7943 11.1426 13.7944C11.1426 13.7945 11.1426 13.7946 11.1426 13.7947C11.1426 13.7948 11.1426 13.7949 11.1426 13.795C11.1426 13.7951 11.1426 13.7952 11.1426 13.7953C11.1426 13.7954 11.1426 13.7955 11.1426 13.7956C11.1426 13.7957 11.1426 13.7958 11.1426 13.7959C11.1426 13.796 11.1426 13.7961 11.1426 13.7962C11.1426 13.7962 11.1426 13.7963 11.1426 13.7964C11.1426 13.7965 11.1426 13.7966 11.1426 13.7967C11.1426 13.7968 11.1426 13.7969 11.1426 13.797C11.1426 13.7971 11.1426 13.7972 11.1426 13.7973C11.1426 13.7974 11.1426 13.7975 11.1426 13.7976C11.1426 13.7977 11.1426 13.7978 11.1426 13.7979C11.1426 13.798 11.1426 13.7981 11.1426 13.7982C11.1426 13.7983 11.1426 13.7984 11.1426 13.7985C11.1426 13.7986 11.1426 13.7986 11.1426 13.7987C11.1426 13.7988 11.1426 13.7989 11.1426 13.799C11.1426 13.7991 11.1426 13.7992 11.1426 13.7993C11.1426 13.7994 11.1426 13.7995 11.1426 13.7996C11.1426 13.7997 11.1426 13.7998 11.1426 13.7999C11.1426 13.8 11.1426 13.8001 11.1426 13.8002C11.1426 13.8003 11.1426 13.8004 11.1426 13.8005C11.1426 13.8006 11.1426 13.8007 11.1426 13.8008C11.1426 13.8009 11.1426 13.801 11.1426 13.8011C11.1426 13.8011 11.1426 13.8012 11.1426 13.8013C11.1426 13.8014 11.1426 13.8015 11.1426 13.8016C11.1426 13.8017 11.1426 13.8018 11.1426 13.8019C11.1426 13.802 11.1426 13.8021 11.1426 13.8022C11.1426 13.8023 11.1426 13.8024 11.1426 13.8025C11.1426 13.8026 11.1426 13.8027 11.1426 13.8028C11.1426 13.8029 11.1426 13.803 11.1426 13.8031C11.1426 13.8032 11.1426 13.8033 11.1426 13.8034C11.1426 13.8035 11.1426 13.8036 11.1426 13.8037C11.1426 13.8038 11.1426 13.8038 11.1426 13.8039C11.1426 13.804 11.1426 13.8041 11.1426 13.8042C11.1426 13.8043 11.1426 13.8044 11.1426 13.8045C11.1426 13.8046 11.1426 13.8047 11.1426 13.8048C11.1426 13.8049 11.1426 13.805 11.1426 13.8051C11.1426 13.8052 11.1426 13.8053 11.1426 13.8054C11.1426 13.8055 11.1426 13.8056 11.1426 13.8057C11.1426 13.8058 11.1426 13.8059 11.1426 13.806C11.1426 13.8061 11.1426 13.8062 11.1426 13.8063C11.1426 13.8064 11.1426 13.8065 11.1426 13.8066C11.1426 13.8067 11.1426 13.8068 11.1426 13.8068C11.1426 13.8069 11.1426 13.807 11.1426 13.8071C11.1426 13.8072 11.1426 13.8073 11.1426 13.8074C11.1426 13.8075 11.1426 13.8076 11.1426 13.8077C11.1426 13.8078 11.1426 13.8079 11.1426 13.808C11.1426 13.8081 11.1426 13.8082 11.1426 13.8083C11.1426 13.8084 11.1426 13.8085 11.1426 13.8086C11.1426 13.8087 11.1426 13.8088 11.1426 13.8089C11.1426 13.809 11.1426 13.8091 11.1426 13.8092C11.1426 13.8093 11.1426 13.8094 11.1426 13.8095C11.1426 13.8096 11.1426 13.8097 11.1426 13.8098C11.1426 13.8099 11.1426 13.81 11.1426 13.8101C11.1426 13.8102 11.1426 13.8102 11.1426 13.8103C11.1426 13.8104 11.1426 13.8105 11.1426 13.8106C11.1426 13.8107 11.1426 13.8108 11.1426 13.8109C11.1426 13.811 11.1426 13.8111 11.1426 13.8112C11.1426 13.8113 11.1426 13.8114 11.1426 13.8115C11.1426 13.8116 11.1426 13.8117 11.1426 13.8118C11.1426 13.8119 11.1426 13.812 11.1426 13.8121C11.1426 13.8122 11.1426 13.8123 11.1426 13.8124C11.1426 13.8125 11.1426 13.8126 11.1426 13.8127C11.1426 13.8128 11.1426 13.8129 11.1426 13.813C11.1426 13.8131 11.1426 13.8132 11.1426 13.8133C11.1426 13.8134 11.1426 13.8135 11.1426 13.8136C11.1426 13.8137 11.1426 13.8138 11.1426 13.8139C11.1426 13.814 11.1426 13.8141 11.1426 13.8142C11.1426 13.8142 11.1426 13.8143 11.1426 13.8144C11.1426 13.8145 11.1426 13.8146 11.1426 13.8147C11.1426 13.8148 11.1426 13.8149 11.1426 13.815C11.1426 13.8151 11.1426 13.8152 11.1426 13.8153C11.1426 13.8154 11.1426 13.8155 11.1426 13.8156C11.1426 13.8157 11.1426 13.8158 11.1426 13.8159C11.1426 13.816 11.1426 13.8161 11.1426 13.8162C11.1426 13.8163 11.1426 13.8164 11.1426 13.8165C11.1426 13.8166 11.1426 13.8167 11.1426 13.8168C11.1426 13.8169 11.1426 13.817 11.1426 13.8171C11.1426 13.8172 11.1426 13.8173 11.1426 13.8174C11.1426 13.8175 11.1426 13.8176 11.1426 13.8177C11.1426 13.8178 11.1426 13.8179 11.1426 13.818C11.1426 13.8181 11.1426 13.8182 11.1426 13.8183C11.1426 13.8184 11.1426 13.8185 11.1426 13.8186C11.1426 13.8187 11.1426 13.8188 11.1426 13.8189C11.1426 13.819 11.1426 13.8191 11.1426 13.8191C11.1426 13.8192 11.1426 13.8193 11.1426 13.8194C11.1426 13.8195 11.1426 13.8196 11.1426 13.8197C11.1426 13.8198 11.1426 13.8199 11.1426 13.82C11.1426 13.8201 11.1426 13.8202 11.1426 13.8203C11.1426 13.8204 11.1426 13.8205 11.1426 13.8206C11.1426 13.8207 11.1426 13.8208 11.1426 13.8209C11.1426 13.821 11.1426 13.8211 11.1426 13.8212C11.1426 13.8213 11.1426 13.8214 11.1426 13.8215C11.1426 13.8216 11.1426 13.8217 11.1426 13.8218C11.1426 13.8219 11.1426 13.822 11.1426 13.8221C11.1426 13.8222 11.1426 13.8223 11.1426 13.8224C11.1426 13.8225 11.1426 13.8226 11.1426 13.8227C11.1426 13.8228 11.1426 13.8229 11.1426 13.823C11.1426 13.8231 11.1426 13.8232 11.1426 13.8233C11.1426 13.8234 11.1426 13.8235 11.1426 13.8236C11.1426 13.8237 11.1426 13.8238 11.1426 13.8239C11.1426 13.824 11.1426 13.8241 11.1426 13.8242C11.1426 13.8243 11.1426 13.8244 11.1426 13.8245C11.1426 13.8246 11.1426 13.8247 11.1426 13.8248C11.1426 13.8249 11.1426 13.825 11.1426 13.8251C11.1426 13.8252 11.1426 13.8253 11.1426 13.8254C11.1426 13.8255 11.1426 13.8256 11.1426 13.8257C11.1426 13.8258 11.1426 13.8259 11.1426 13.826C11.1426 13.8261 11.1426 13.8262 11.1426 13.8263C11.1426 13.8264 11.1426 13.8265 11.1426 13.8266C11.1426 13.8267 11.1426 13.8268 11.1426 13.8269C11.1426 13.827 11.1426 13.827 11.1426 13.8271H9.14258C9.14258 13.827 9.14258 13.827 9.14258 13.8269C9.14258 13.8268 9.14258 13.8267 9.14258 13.8266C9.14258 13.8265 9.14258 13.8264 9.14258 13.8263C9.14258 13.8262 9.14258 13.8261 9.14258 13.826C9.14258 13.8259 9.14258 13.8258 9.14258 13.8257C9.14258 13.8256 9.14258 13.8255 9.14258 13.8254C9.14258 13.8253 9.14258 13.8252 9.14258 13.8251C9.14258 13.825 9.14258 13.8249 9.14258 13.8248C9.14258 13.8247 9.14258 13.8246 9.14258 13.8245C9.14258 13.8244 9.14258 13.8243 9.14258 13.8242C9.14258 13.8241 9.14258 13.824 9.14258 13.8239C9.14258 13.8238 9.14258 13.8237 9.14258 13.8236C9.14258 13.8235 9.14258 13.8234 9.14258 13.8233C9.14258 13.8232 9.14258 13.8231 9.14258 13.823C9.14258 13.8229 9.14258 13.8228 9.14258 13.8227C9.14258 13.8226 9.14258 13.8225 9.14258 13.8224C9.14258 13.8223 9.14258 13.8222 9.14258 13.8221C9.14258 13.822 9.14258 13.8219 9.14258 13.8218C9.14258 13.8217 9.14258 13.8216 9.14258 13.8215C9.14258 13.8214 9.14258 13.8213 9.14258 13.8212C9.14258 13.8211 9.14258 13.821 9.14258 13.8209C9.14258 13.8208 9.14258 13.8207 9.14258 13.8206C9.14258 13.8205 9.14258 13.8204 9.14258 13.8203C9.14258 13.8202 9.14258 13.8201 9.14258 13.82C9.14258 13.8199 9.14258 13.8198 9.14258 13.8197C9.14258 13.8196 9.14258 13.8195 9.14258 13.8194C9.14258 13.8193 9.14258 13.8192 9.14258 13.8191C9.14258 13.8191 9.14258 13.819 9.14258 13.8189C9.14258 13.8188 9.14258 13.8187 9.14258 13.8186C9.14258 13.8185 9.14258 13.8184 9.14258 13.8183C9.14258 13.8182 9.14258 13.8181 9.14258 13.818C9.14258 13.8179 9.14258 13.8178 9.14258 13.8177C9.14258 13.8176 9.14258 13.8175 9.14258 13.8174C9.14258 13.8173 9.14258 13.8172 9.14258 13.8171C9.14258 13.817 9.14258 13.8169 9.14258 13.8168C9.14258 13.8167 9.14258 13.8166 9.14258 13.8165C9.14258 13.8164 9.14258 13.8163 9.14258 13.8162C9.14258 13.8161 9.14258 13.816 9.14258 13.8159C9.14258 13.8158 9.14258 13.8157 9.14258 13.8156C9.14258 13.8155 9.14258 13.8154 9.14258 13.8153C9.14258 13.8152 9.14258 13.8151 9.14258 13.815C9.14258 13.8149 9.14258 13.8148 9.14258 13.8147C9.14258 13.8146 9.14258 13.8145 9.14258 13.8144C9.14258 13.8143 9.14258 13.8142 9.14258 13.8142C9.14258 13.8141 9.14258 13.814 9.14258 13.8139C9.14258 13.8138 9.14258 13.8137 9.14258 13.8136C9.14258 13.8135 9.14258 13.8134 9.14258 13.8133C9.14258 13.8132 9.14258 13.8131 9.14258 13.813C9.14258 13.8129 9.14258 13.8128 9.14258 13.8127C9.14258 13.8126 9.14258 13.8125 9.14258 13.8124C9.14258 13.8123 9.14258 13.8122 9.14258 13.8121C9.14258 13.812 9.14258 13.8119 9.14258 13.8118C9.14258 13.8117 9.14258 13.8116 9.14258 13.8115C9.14258 13.8114 9.14258 13.8113 9.14258 13.8112C9.14258 13.8111 9.14258 13.811 9.14258 13.8109C9.14258 13.8108 9.14258 13.8107 9.14258 13.8106C9.14258 13.8105 9.14258 13.8104 9.14258 13.8103C9.14258 13.8102 9.14258 13.8102 9.14258 13.8101C9.14258 13.81 9.14258 13.8099 9.14258 13.8098C9.14258 13.8097 9.14258 13.8096 9.14258 13.8095C9.14258 13.8094 9.14258 13.8093 9.14258 13.8092C9.14258 13.8091 9.14258 13.809 9.14258 13.8089C9.14258 13.8088 9.14258 13.8087 9.14258 13.8086C9.14258 13.8085 9.14258 13.8084 9.14258 13.8083C9.14258 13.8082 9.14258 13.8081 9.14258 13.808C9.14258 13.8079 9.14258 13.8078 9.14258 13.8077C9.14258 13.8076 9.14258 13.8075 9.14258 13.8074C9.14258 13.8073 9.14258 13.8072 9.14258 13.8071C9.14258 13.807 9.14258 13.8069 9.14258 13.8068C9.14258 13.8068 9.14258 13.8067 9.14258 13.8066C9.14258 13.8065 9.14258 13.8064 9.14258 13.8063C9.14258 13.8062 9.14258 13.8061 9.14258 13.806C9.14258 13.8059 9.14258 13.8058 9.14258 13.8057C9.14258 13.8056 9.14258 13.8055 9.14258 13.8054C9.14258 13.8053 9.14258 13.8052 9.14258 13.8051C9.14258 13.805 9.14258 13.8049 9.14258 13.8048C9.14258 13.8047 9.14258 13.8046 9.14258 13.8045C9.14258 13.8044 9.14258 13.8043 9.14258 13.8042C9.14258 13.8041 9.14258 13.804 9.14258 13.8039C9.14258 13.8038 9.14258 13.8038 9.14258 13.8037C9.14258 13.8036 9.14258 13.8035 9.14258 13.8034C9.14258 13.8033 9.14258 13.8032 9.14258 13.8031C9.14258 13.803 9.14258 13.8029 9.14258 13.8028C9.14258 13.8027 9.14258 13.8026 9.14258 13.8025C9.14258 13.8024 9.14258 13.8023 9.14258 13.8022C9.14258 13.8021 9.14258 13.802 9.14258 13.8019C9.14258 13.8018 9.14258 13.8017 9.14258 13.8016C9.14258 13.8015 9.14258 13.8014 9.14258 13.8013C9.14258 13.8012 9.14258 13.8011 9.14258 13.8011C9.14258 13.801 9.14258 13.8009 9.14258 13.8008C9.14258 13.8007 9.14258 13.8006 9.14258 13.8005C9.14258 13.8004 9.14258 13.8003 9.14258 13.8002C9.14258 13.8001 9.14258 13.8 9.14258 13.7999C9.14258 13.7998 9.14258 13.7997 9.14258 13.7996C9.14258 13.7995 9.14258 13.7994 9.14258 13.7993C9.14258 13.7992 9.14258 13.7991 9.14258 13.799C9.14258 13.7989 9.14258 13.7988 9.14258 13.7987C9.14258 13.7986 9.14258 13.7986 9.14258 13.7985C9.14258 13.7984 9.14258 13.7983 9.14258 13.7982C9.14258 13.7981 9.14258 13.798 9.14258 13.7979C9.14258 13.7978 9.14258 13.7977 9.14258 13.7976C9.14258 13.7975 9.14258 13.7974 9.14258 13.7973C9.14258 13.7972 9.14258 13.7971 9.14258 13.797C9.14258 13.7969 9.14258 13.7968 9.14258 13.7967C9.14258 13.7966 9.14258 13.7965 9.14258 13.7964C9.14258 13.7963 9.14258 13.7962 9.14258 13.7962C9.14258 13.7961 9.14258 13.796 9.14258 13.7959C9.14258 13.7958 9.14258 13.7957 9.14258 13.7956C9.14258 13.7955 9.14258 13.7954 9.14258 13.7953C9.14258 13.7952 9.14258 13.7951 9.14258 13.795C9.14258 13.7949 9.14258 13.7948 9.14258 13.7947C9.14258 13.7946 9.14258 13.7945 9.14258 13.7944C9.14258 13.7943 9.14258 13.7942 9.14258 13.7941C9.14258 13.794 9.14258 13.794 9.14258 13.7939C9.14258 13.7938 9.14258 13.7937 9.14258 13.7936C9.14258 13.7935 9.14258 13.7934 9.14258 13.7933C9.14258 13.7932 9.14258 13.7931 9.14258 13.793C9.14258 13.7929 9.14258 13.7928 9.14258 13.7927C9.14258 13.7926 9.14258 13.7925 9.14258 13.7924C9.14258 13.7923 9.14258 13.7922 9.14258 13.7921C9.14258 13.792 9.14258 13.7919 9.14258 13.7919C9.14258 13.7918 9.14258 13.7917 9.14258 13.7916C9.14258 13.7915 9.14258 13.7914 9.14258 13.7913C9.14258 13.7912 9.14258 13.7911 9.14258 13.791C9.14258 13.7909 9.14258 13.7908 9.14258 13.7907C9.14258 13.7906 9.14258 13.7905 9.14258 13.7904C9.14258 13.7903 9.14258 13.7902 9.14258 13.7901C9.14258 13.79 9.14258 13.79 9.14258 13.7899C9.14258 13.7898 9.14258 13.7897 9.14258 13.7896C9.14258 13.7895 9.14258 13.7894 9.14258 13.7893C9.14258 13.7892 9.14258 13.7891 9.14258 13.789C9.14258 13.7889 9.14258 13.7888 9.14258 13.7887C9.14258 13.7886 9.14258 13.7885 9.14258 13.7884C9.14258 13.7883 9.14258 13.7882 9.14258 13.7881C9.14258 13.7881 9.14258 13.788 9.14258 13.7879C9.14258 13.7878 9.14258 13.7877 9.14258 13.7876C9.14258 13.7875 9.14258 13.7874 9.14258 13.7873C9.14258 13.7872 9.14258 13.7871 9.14258 13.787C9.14258 13.7869 9.14258 13.7868 9.14258 13.7867C9.14258 13.7866 9.14258 13.7865 9.14258 13.7864C9.14258 13.7863 9.14258 13.7863 9.14258 13.7862C9.14258 13.7861 9.14258 13.786 9.14258 13.7859C9.14258 13.7858 9.14258 13.7857 9.14258 13.7856C9.14258 13.7855 9.14258 13.7854 9.14258 13.7853C9.14258 13.7852 9.14258 13.7851 9.14258 13.785C9.14258 13.7849 9.14258 13.7848 9.14258 13.7847C9.14258 13.7846 9.14258 13.7846 9.14258 13.7845C9.14258 13.7844 9.14258 13.7843 9.14258 13.7842C9.14258 13.7841 9.14258 13.784 9.14258 13.7839C9.14258 13.7838 9.14258 13.7837 9.14258 13.7836C9.14258 13.7835 9.14258 13.7834 9.14258 13.7833C9.14258 13.7832 9.14258 13.7831 9.14258 13.783C9.14258 13.7829 9.14258 13.7829 9.14258 13.7828C9.14258 13.7827 9.14258 13.7826 9.14258 13.7825C9.14258 13.7824 9.14258 13.7823 9.14258 13.7822C9.14258 13.7821 9.14258 13.782 9.14258 13.7819C9.14258 13.7818 9.14258 13.7817 9.14258 13.7816C9.14258 13.7815 9.14258 13.7814 9.14258 13.7813C9.14258 13.7813 9.14258 13.7812 9.14258 13.7811C9.14258 13.781 9.14258 13.7809 9.14258 13.7808C9.14258 13.7807 9.14258 13.7806 9.14258 13.7805C9.14258 13.7804 9.14258 13.7803 9.14258 13.7802C9.14258 13.7801 9.14258 13.78 9.14258 13.7799C9.14258 13.7798 9.14258 13.7797 9.14258 13.7797C9.14258 13.7796 9.14258 13.7795 9.14258 13.7794C9.14258 13.7793 9.14258 13.7792 9.14258 13.7791C9.14258 13.779 9.14258 13.7789 9.14258 13.7788C9.14258 13.7787 9.14258 13.7786 9.14258 13.7785C9.14258 13.7784 9.14258 13.7783 9.14258 13.7782C9.14258 13.7782 9.14258 13.7781 9.14258 13.778C9.14258 13.7779 9.14258 13.7778 9.14258 13.7777C9.14258 13.7776 9.14258 13.7775 9.14258 13.7774C9.14258 13.7773 9.14258 13.7772 9.14258 13.7771C9.14258 13.777 9.14258 13.7769 9.14258 13.7768C9.14258 13.7767 9.14258 13.7767 9.14258 13.7766C9.14258 13.7765 9.14258 13.7764 9.14258 13.7763C9.14258 13.7762 9.14258 13.7761 9.14258 13.776C9.14258 13.7759 9.14258 13.7758 9.14258 13.7757C9.14258 13.7756 9.14258 13.7755 9.14258 13.7754C9.14258 13.7753 9.14258 13.7753 9.14258 13.7752C9.14258 13.7751 9.14258 13.775 9.14258 13.7749C9.14258 13.7748 9.14258 13.7747 9.14258 13.7746C9.14258 13.7745 9.14258 13.7744 9.14258 13.7743C9.14258 13.7742 9.14258 13.7741 9.14258 13.774C9.14258 13.7739 9.14258 13.7739 9.14258 13.7738C9.14258 13.7737 9.14258 13.7736 9.14258 13.7735C9.14258 13.7734 9.14258 13.7733 9.14258 13.7732C9.14258 13.7731 9.14258 13.773 9.14258 13.7729C9.14258 13.7728 9.14258 13.7727 9.14258 13.7726C9.14258 13.7725 9.14258 13.7725 9.14258 13.7724C9.14258 13.7723 9.14258 13.7722 9.14258 13.7721C9.14258 13.772 9.14258 13.7719 9.14258 13.7718C9.14258 13.7717 9.14258 13.7716 9.14258 13.7715C9.14258 13.7714 9.14258 13.7713 9.14258 13.7712C9.14258 13.7712 9.14258 13.7711 9.14258 13.771C9.14258 13.7709 9.14258 13.7708 9.14258 13.7707C9.14258 13.7706 9.14258 13.7705 9.14258 13.7704C9.14258 13.7703 9.14258 13.7702 9.14258 13.7701C9.14258 13.77 9.14258 13.7699 9.14258 13.7699C9.14258 13.7698 9.14258 13.7697 9.14258 13.7696C9.14258 13.7695 9.14258 13.7694 9.14258 13.7693C9.14258 13.7692 9.14258 13.7691 9.14258 13.769C9.14258 13.7689 9.14258 13.7688 9.14258 13.7687C9.14258 13.7686 9.14258 13.7686 9.14258 13.7685C9.14258 13.7684 9.14258 13.7683 9.14258 13.7682C9.14258 13.7681 9.14258 13.768 9.14258 13.7679C9.14258 13.7678 9.14258 13.7677 9.14258 13.7676C9.14258 13.7675 9.14258 13.7674 9.14258 13.7674C9.14258 13.7673 9.14258 13.7672 9.14258 13.7671C9.14258 13.767 9.14258 13.7669 9.14258 13.7668C9.14258 13.7667 9.14258 13.7666 9.14258 13.7665C9.14258 13.7664 9.14258 13.7663 9.14258 13.7662C9.14258 13.7662 9.14258 13.7661 9.14258 13.766C9.14258 13.7659 9.14258 13.7658 9.14258 13.7657C9.14258 13.7656 9.14258 13.7655 9.14258 13.7654C9.14258 13.7653 9.14258 13.7652 9.14258 13.7651C9.14258 13.765 9.14258 13.765 9.14258 13.7649C9.14258 13.7648 9.14258 13.7647 9.14258 13.7646C9.14258 13.7645 9.14258 13.7644 9.14258 13.7643C9.14258 13.7642 9.14258 13.7641 9.14258 13.764C9.14258 13.7639 9.14258 13.7638 9.14258 13.7638C9.14258 13.7637 9.14258 13.7636 9.14258 13.7635C9.14258 13.7634 9.14258 13.7633 9.14258 13.7632C9.14258 13.7631 9.14258 13.763 9.14258 13.7629C9.14258 13.7628 9.14258 13.7627 9.14258 13.7627C9.14258 13.7626 9.14258 13.7625 9.14258 13.7624C9.14258 13.7623 9.14258 13.7622 9.14258 13.7621C9.14258 13.762 9.14258 13.7619 9.14258 13.7618C9.14258 13.7617 9.14258 13.7616 9.14258 13.7615C9.14258 13.7615 9.14258 13.7614 9.14258 13.7613C9.14258 13.7612 9.14258 13.7611 9.14258 13.761C9.14258 13.7609 9.14258 13.7608 9.14258 13.7607C9.14258 13.7606 9.14258 13.7605 9.14258 13.7604C9.14258 13.7604 9.14258 13.7603 9.14258 13.7602C9.14258 13.7601 9.14258 13.76 9.14258 13.7599C9.14258 13.7598 9.14258 13.7597 9.14258 13.7596C9.14258 13.7595 9.14258 13.7594 9.14258 13.7594C9.14258 13.7593 9.14258 13.7592 9.14258 13.7591C9.14258 13.759 9.14258 13.7589 9.14258 13.7588C9.14258 13.7587 9.14258 13.7586 9.14258 13.7585C9.14258 13.7584 9.14258 13.7583 9.14258 13.7583C9.14258 13.7582 9.14258 13.7581 9.14258 13.758C9.14258 13.7579 9.14258 13.7578 9.14258 13.7577C9.14258 13.7576 9.14258 13.7575 9.14258 13.7574C9.14258 13.7573 9.14258 13.7572 9.14258 13.7572C9.14258 13.7571 9.14258 13.757 9.14258 13.7569C9.14258 13.7568 9.14258 13.7567 9.14258 13.7566C9.14258 13.7565 9.14258 13.7564 9.14258 13.7563C9.14258 13.7562 9.14258 13.7562 9.14258 13.7561C9.14258 13.756 9.14258 13.7559 9.14258 13.7558C9.14258 13.7557 9.14258 13.7556 9.14258 13.7555C9.14258 13.7554 9.14258 13.7553 9.14258 13.7552C9.14258 13.7552 9.14258 13.7551 9.14258 13.755C9.14258 13.7549 9.14258 13.7548 9.14258 13.7547C9.14258 13.7546 9.14258 13.7545 9.14258 13.7544C9.14258 13.7543 9.14258 13.7542 9.14258 13.7542C9.14258 13.7541 9.14258 13.754 9.14258 13.7539C9.14258 13.7538 9.14258 13.7537 9.14258 13.7536C9.14258 13.7535 9.14258 13.7534 9.14258 13.7533C9.14258 13.7532 9.14258 13.7532 9.14258 13.7531C9.14258 13.753 9.14258 13.7529 9.14258 13.7528C9.14258 13.7527 9.14258 13.7526 9.14258 13.7525C9.14258 13.7524 9.14258 13.7523 9.14258 13.7522C9.14258 13.7522 9.14258 13.7521 9.14258 13.752C9.14258 13.7519 9.14258 13.7518 9.14258 13.7517C9.14258 13.7516 9.14258 13.7515 9.14258 13.7514C9.14258 13.7513 9.14258 13.7512 9.14258 13.7512C9.14258 13.7511 9.14258 13.751 9.14258 13.7509C9.14258 13.7508 9.14258 13.7507 9.14258 13.7506C9.14258 13.7505 9.14258 13.7504 9.14258 13.7503C9.14258 13.7503 9.14258 13.7502 9.14258 13.7501C9.14258 13.75 9.14258 13.7499 9.14258 13.7498C9.14258 13.7497 9.14258 13.7496 9.14258 13.7495C9.14258 13.7494 9.14258 13.7493 9.14258 13.7493C9.14258 13.7492 9.14258 13.7491 9.14258 13.749C9.14258 13.7489 9.14258 13.7488 9.14258 13.7487C9.14258 13.7486 9.14258 13.7485 9.14258 13.7484C9.14258 13.7484 9.14258 13.7483 9.14258 13.7482C9.14258 13.7481 9.14258 13.748 9.14258 13.7479C9.14258 13.7478 9.14258 13.7477 9.14258 13.7476C9.14258 13.7475 9.14258 13.7475 9.14258 13.7474C9.14258 13.7473 9.14258 13.7472 9.14258 13.7471C9.14258 13.747 9.14258 13.7469 9.14258 13.7468C9.14258 13.7467 9.14258 13.7466 9.14258 13.7466C9.14258 13.7465 9.14258 13.7464 9.14258 13.7463C9.14258 13.7462 9.14258 13.7461 9.14258 13.746C9.14258 13.7459 9.14258 13.7458 9.14258 13.7457C9.14258 13.7457 9.14258 13.7456 9.14258 13.7455C9.14258 13.7454 9.14258 13.7453 9.14258 13.7452C9.14258 13.7451 9.14258 13.745 9.14258 13.7449C9.14258 13.7448 9.14258 13.7448 9.14258 13.7447C9.14258 13.7446 9.14258 13.7445 9.14258 13.7444C9.14258 13.7443 9.14258 13.7442 9.14258 13.7441C9.14258 13.744 9.14258 13.7439 9.14258 13.7439C9.14258 13.7438 9.14258 13.7437 9.14258 13.7436C9.14258 13.7435 9.14258 13.7434 9.14258 13.7433C9.14258 13.7432 9.14258 13.7431 9.14258 13.743C9.14258 13.743 9.14258 13.7429 9.14258 13.7428C9.14258 13.7427 9.14258 13.7426 9.14258 13.7425C9.14258 13.7424 9.14258 13.7423 9.14258 13.7422C9.14258 13.7422 9.14258 13.7421 9.14258 13.742C9.14258 13.7419 9.14258 13.7418 9.14258 13.7417C9.14258 13.7416 9.14258 13.7415 9.14258 13.7414C9.14258 13.7413 9.14258 13.7413 9.14258 13.7412C9.14258 13.7411 9.14258 13.741 9.14258 13.7409C9.14258 13.7408 9.14258 13.7407 9.14258 13.7406C9.14258 13.7405 9.14258 13.7405 9.14258 13.7404C9.14258 13.7403 9.14258 13.7402 9.14258 13.7401C9.14258 13.74 9.14258 13.7399 9.14258 13.7398C9.14258 13.7397 9.14258 13.7397 9.14258 13.7396C9.14258 13.7395 9.14258 13.7394 9.14258 13.7393C9.14258 13.7392 9.14258 13.7391 9.14258 13.739C9.14258 13.7389 9.14258 13.7389 9.14258 13.7388C9.14258 13.7387 9.14258 13.7386 9.14258 13.7385C9.14258 13.7384 9.14258 13.7383 9.14258 13.7382C9.14258 13.7381 9.14258 13.738 9.14258 13.738C9.14258 13.7379 9.14258 13.7378 9.14258 13.7377C9.14258 13.7376 9.14258 13.7375 9.14258 13.7374C9.14258 13.7373 9.14258 13.7372 9.14258 13.7372C9.14258 13.7371 9.14258 13.737 9.14258 13.7369C9.14258 13.7368 9.14258 13.7367 9.14258 13.7366C9.14258 13.7365 9.14258 13.7364 9.14258 13.7364C9.14258 13.7363 9.14258 13.7362 9.14258 13.7361C9.14258 13.736 9.14258 13.7359 9.14258 13.7358C9.14258 13.7357 9.14258 13.7356 9.14258 13.7356C9.14258 13.7355 9.14258 13.7354 9.14258 13.7353C9.14258 13.7352 9.14258 13.7351 9.14258 13.735C9.14258 13.7349 9.14258 13.7349 9.14258 13.7348C9.14258 13.7347 9.14258 13.7346 9.14258 13.7345C9.14258 13.7344 9.14258 13.7343 9.14258 13.7342C9.14258 13.7341 9.14258 13.7341 9.14258 13.734C9.14258 13.7339 9.14258 13.7338 9.14258 13.7337C9.14258 13.7336 9.14258 13.7335 9.14258 13.7334C9.14258 13.7333 9.14258 13.7333 9.14258 13.7332C9.14258 13.7331 9.14258 13.733 9.14258 13.7329C9.14258 13.7328 9.14258 13.7327 9.14258 13.7326C9.14258 13.7326 9.14258 13.7325 9.14258 13.7324C9.14258 13.7323 9.14258 13.7322 9.14258 13.7321C9.14258 13.732 9.14258 13.7319 9.14258 13.7318C9.14258 13.7318 9.14258 13.7317 9.14258 13.7316C9.14258 13.7315 9.14258 13.7314 9.14258 13.7313C9.14258 13.7312 9.14258 13.7311 9.14258 13.7311C9.14258 13.731 9.14258 13.7309 9.14258 13.7308C9.14258 13.7307 9.14258 13.7306 9.14258 13.7305C9.14258 13.7304 9.14258 13.7303 9.14258 13.7303C9.14258 13.7302 9.14258 13.7301 9.14258 13.73C9.14258 13.7299 9.14258 13.7298 9.14258 13.7297C9.14258 13.7296 9.14258 13.7296 9.14258 13.7295C9.14258 13.7294 9.14258 13.7293 9.14258 13.7292C9.14258 13.7291 9.14258 13.729 9.14258 13.7289C9.14258 13.7289 9.14258 13.7288 9.14258 13.7287C9.14258 13.7286 9.14258 13.7285 9.14258 13.7284C9.14258 13.7283 9.14258 13.7282 9.14258 13.7281C9.14258 13.7281 9.14258 13.728 9.14258 13.7279C9.14258 13.7278 9.14258 13.7277 9.14258 13.7276C9.14258 13.7275 9.14258 13.7274 9.14258 13.7274C9.14258 13.7273 9.14258 13.7272 9.14258 13.7271C9.14258 13.727 9.14258 13.7269 9.14258 13.7268C9.14258 13.7267 9.14258 13.7267 9.14258 13.7266C9.14258 13.7265 9.14258 13.7264 9.14258 13.7263C9.14258 13.7262 9.14258 13.7261 9.14258 13.726C9.14258 13.726 9.14258 13.7259 9.14258 13.7258C9.14258 13.7257 9.14258 13.7256 9.14258 13.7255C9.14258 13.7254 9.14258 13.7253 9.14258 13.7253C9.14258 13.7252 9.14258 13.7251 9.14258 13.725C9.14258 13.7249 9.14258 13.7248 9.14258 13.7247C9.14258 13.7246 9.14258 13.7246 9.14258 13.7245C9.14258 13.7244 9.14258 13.7243 9.14258 13.7242C9.14258 13.7241 9.14258 13.724 9.14258 13.7239C9.14258 13.7239 9.14258 13.7238 9.14258 13.7237C9.14258 13.7236 9.14258 13.7235 9.14258 13.7234C9.14258 13.7233 9.14258 13.7233 9.14258 13.7232C9.14258 13.7231 9.14258 13.723 9.14258 13.7229C9.14258 13.7228 9.14258 13.7227 9.14258 13.7226C9.14258 13.7226 9.14258 13.7225 9.14258 13.7224C9.14258 13.7223 9.14258 13.7222 9.14258 13.7221C9.14258 13.722 9.14258 13.7219 9.14258 13.7219C9.14258 13.7218 9.14258 13.7217 9.14258 13.7216C9.14258 13.7215 9.14258 13.7214 9.14258 13.7213C9.14258 13.7212 9.14258 13.7212 9.14258 13.7211C9.14258 13.721 9.14258 13.7209 9.14258 13.7208C9.14258 13.7207 9.14258 13.7206 9.14258 13.7206C9.14258 13.7205 9.14258 13.7204 9.14258 13.7203C9.14258 13.7202 9.14258 13.7201 9.14258 13.72C9.14258 13.7199 9.14258 13.7199 9.14258 13.7198C9.14258 13.7197 9.14258 13.7196 9.14258 13.7195C9.14258 13.7194 9.14258 13.7193 9.14258 13.7193C9.14258 13.7192 9.14258 13.7191 9.14258 13.719C9.14258 13.7189 9.14258 13.7188 9.14258 13.7187C9.14258 13.7186 9.14258 13.7186 9.14258 13.7185C9.14258 13.7184 9.14258 13.7183 9.14258 13.7182C9.14258 13.7181 9.14258 13.718 9.14258 13.718C9.14258 13.7179 9.14258 13.7178 9.14258 13.7177C9.14258 13.7176 9.14258 13.7175 9.14258 13.7174C9.14258 13.7173 9.14258 13.7173 9.14258 13.7172C9.14258 13.7171 9.14258 13.717 9.14258 13.7169C9.14258 13.7168 9.14258 13.7167 9.14258 13.7167C9.14258 13.7166 9.14258 13.7165 9.14258 13.7164C9.14258 13.7163 9.14258 13.7162 9.14258 13.7161C9.14258 13.7161 9.14258 13.716 9.14258 13.7159C9.14258 13.7158 9.14258 13.7157 9.14258 13.7156C9.14258 13.7155 9.14258 13.7154 9.14258 13.7154C9.14258 13.7153 9.14258 13.7152 9.14258 13.7151C9.14258 13.715 9.14258 13.7149 9.14258 13.7148C9.14258 13.7148 9.14258 13.7147 9.14258 13.7146C9.14258 13.7145 9.14258 13.7144 9.14258 13.7143C9.14258 13.7142 9.14258 13.7142 9.14258 13.7141C9.14258 13.714 9.14258 13.7139 9.14258 13.7138C9.14258 13.7137 9.14258 13.7136 9.14258 13.7136C9.14258 13.7135 9.14258 13.7134 9.14258 13.7133C9.14258 13.7132 9.14258 13.7131 9.14258 13.713C9.14258 13.713 9.14258 13.7129 9.14258 13.7128C9.14258 13.7127 9.14258 13.7126 9.14258 13.7125C9.14258 13.7124 9.14258 13.7124 9.14258 13.7123C9.14258 13.7122 9.14258 13.7121 9.14258 13.712C9.14258 13.7119 9.14258 13.7118 9.14258 13.7118C9.14258 13.7117 9.14258 13.7116 9.14258 13.7115C9.14258 13.7114 9.14258 13.7113 9.14258 13.7112C9.14258 13.7112 9.14258 13.7111 9.14258 13.711C9.14258 13.7109 9.14258 13.7108 9.14258 13.7107C9.14258 13.7106 9.14258 13.7106 9.14258 13.7105C9.14258 13.7104 9.14258 13.7103 9.14258 13.7102C9.14258 13.7101 9.14258 13.71 9.14258 13.71C9.14258 13.7099 9.14258 13.7098 9.14258 13.7097C9.14258 13.7096 9.14258 13.7095 9.14258 13.7094C9.14258 13.7094 9.14258 13.7093 9.14258 13.7092C9.14258 13.7091 9.14258 13.709 9.14258 13.7089C9.14258 13.7088 9.14258 13.7088 9.14258 13.7087C9.14258 13.7086 9.14258 13.7085 9.14258 13.7084C9.14258 13.7083 9.14258 13.7082 9.14258 13.7082C9.14258 13.7081 9.14258 13.708 9.14258 13.7079C9.14258 13.7078 9.14258 13.7077 9.14258 13.7076C9.14258 13.7076 9.14258 13.7075 9.14258 13.7074C9.14258 13.7073 9.14258 13.7072 9.14258 13.7071C9.14258 13.707 9.14258 13.707 9.14258 13.7069C9.14258 13.7068 9.14258 13.7067 9.14258 13.7066C9.14258 13.7065 9.14258 13.7065 9.14258 13.7064C9.14258 13.7063 9.14258 13.7062 9.14258 13.7061C9.14258 13.706 9.14258 13.7059 9.14258 13.7059C9.14258 13.7058 9.14258 13.7057 9.14258 13.7056C9.14258 13.7055 9.14258 13.7054 9.14258 13.7053C9.14258 13.7053 9.14258 13.7052 9.14258 13.7051C9.14258 13.705 9.14258 13.7049 9.14258 13.7048C9.14258 13.7048 9.14258 13.7047 9.14258 13.7046C9.14258 13.7045 9.14258 13.7044 9.14258 13.7043C9.14258 13.7042 9.14258 13.7042 9.14258 13.7041C9.14258 13.704 9.14258 13.7039 9.14258 13.7038C9.14258 13.7037 9.14258 13.7037 9.14258 13.7036C9.14258 13.7035 9.14258 13.7034 9.14258 13.7033C9.14258 13.7032 9.14258 13.7031 9.14258 13.7031C9.14258 13.703 9.14258 13.7029 9.14258 13.7028C9.14258 13.7027 9.14258 13.7026 9.14258 13.7026C9.14258 13.7025 9.14258 13.7024 9.14258 13.7023C9.14258 13.7022 9.14258 13.7021 9.14258 13.702C9.14258 13.702 9.14258 13.7019 9.14258 13.7018C9.14258 13.7017 9.14258 13.7016 9.14258 13.7015C9.14258 13.7015 9.14258 13.7014 9.14258 13.7013C9.14258 13.7012 9.14258 13.7011 9.14258 13.701C9.14258 13.7009 9.14258 13.7009 9.14258 13.7008C9.14258 13.7007 9.14258 13.7006 9.14258 13.7005C9.14258 13.7004 9.14258 13.7004 9.14258 13.7003C9.14258 13.7002 9.14258 13.7001 9.14258 13.7C9.14258 13.6999 9.14258 13.6999 9.14258 13.6998C9.14258 13.6997 9.14258 13.6996 9.14258 13.6995C9.14258 13.6994 9.14258 13.6993 9.14258 13.6993C9.14258 13.6992 9.14258 13.6991 9.14258 13.699C9.14258 13.6989 9.14258 13.6988 9.14258 13.6988C9.14258 13.6987 9.14258 13.6986 9.14258 13.6985C9.14258 13.6984 9.14258 13.6983 9.14258 13.6983C9.14258 13.6982 9.14258 13.6981 9.14258 13.698C9.14258 13.6979 9.14258 13.6978 9.14258 13.6977C9.14258 13.6977 9.14258 13.6976 9.14258 13.6975C9.14258 13.6974 9.14258 13.6973 9.14258 13.6972C9.14258 13.6972 9.14258 13.6971 9.14258 13.697C9.14258 13.6969 9.14258 13.6968 9.14258 13.6967C9.14258 13.6967 9.14258 13.6966 9.14258 13.6965C9.14258 13.6964 9.14258 13.6963 9.14258 13.6962C9.14258 13.6962 9.14258 13.6961 9.14258 13.696C9.14258 13.6959 9.14258 13.6958 9.14258 13.6957C9.14258 13.6957 9.14258 13.6956 9.14258 13.6955C9.14258 13.6954 9.14258 13.6953 9.14258 13.6952C9.14258 13.6951 9.14258 13.6951 9.14258 13.695C9.14258 13.6949 9.14258 13.6948 9.14258 13.6947C9.14258 13.6946 9.14258 13.6946 9.14258 13.6945C9.14258 13.6944 9.14258 13.6943 9.14258 13.6942C9.14258 13.6941 9.14258 13.6941 9.14258 13.694C9.14258 13.6939 9.14258 13.6938 9.14258 13.6937C9.14258 13.6936 9.14258 13.6936 9.14258 13.6935C9.14258 13.6934 9.14258 13.6933 9.14258 13.6932C9.14258 13.6931 9.14258 13.6931 9.14258 13.693C9.14258 13.6929 9.14258 13.6928 9.14258 13.6927C9.14258 13.6926 9.14258 13.6926 9.14258 13.6925C9.14258 13.6924 9.14258 13.6923 9.14258 13.6922C9.14258 13.6921 9.14258 13.6921 9.14258 13.692C9.14258 13.6919 9.14258 13.6918 9.14258 13.6917C9.14258 13.6916 9.14258 13.6916 9.14258 13.6915C9.14258 13.6914 9.14258 13.6913 9.14258 13.6912C9.14258 13.6911 9.14258 13.6911 9.14258 13.691C9.14258 13.6909 9.14258 13.6908 9.14258 13.6907C9.14258 13.6906 9.14258 13.6906 9.14258 13.6905C9.14258 13.6904 9.14258 13.6903 9.14258 13.6902C9.14258 13.6902 9.14258 13.6901 9.14258 13.69C9.14258 13.6899 9.14258 13.6898 9.14258 13.6897C9.14258 13.6897 9.14258 13.6896 9.14258 13.6895C9.14258 13.6894 9.14258 13.6893 9.14258 13.6892C9.14258 13.6892 9.14258 13.6891 9.14258 13.689C9.14258 13.6889 9.14258 13.6888 9.14258 13.6887C9.14258 13.6887 9.14258 13.6886 9.14258 13.6885C9.14258 13.6884 9.14258 13.6883 9.14258 13.6882C9.14258 13.6882 9.14258 13.6881 9.14258 13.688C9.14258 13.6879 9.14258 13.6878 9.14258 13.6877C9.14258 13.6877 9.14258 13.6876 9.14258 13.6875H11.1426ZM11.1426 13.8271C11.1426 14.0011 11.1082 14.156 11.0659 14.283L9.1685 13.6506C9.16002 13.676 9.14258 13.7378 9.14258 13.8271H11.1426ZM11.1095 14.0908C11.0965 14.1944 11.0918 14.2748 11.0918 14.335H9.0918C9.0918 14.175 9.10401 14.01 9.12491 13.8428L11.1095 14.0908ZM11.0883 14.418C11.0844 14.4649 11.0819 14.4998 11.0803 14.5243C11.0796 14.5364 11.0792 14.544 11.079 14.548C11.0788 14.5529 11.0791 14.5485 11.0791 14.5381H9.0791C9.0791 14.4557 9.08738 14.3464 9.09525 14.2519L11.0883 14.418ZM11.0791 14.5381C11.0791 14.4925 11.0727 14.4398 11.056 14.384C11.0392 14.3281 11.0149 14.2786 10.9873 14.2373L9.32322 15.3467C9.16097 15.1033 9.0791 14.8251 9.0791 14.5381H11.0791ZM11.0294 14.3063C10.9844 14.2253 10.9198 14.1487 10.8378 14.0872C10.7576 14.0271 10.6797 13.9955 10.6215 13.9796L10.0953 15.9091C9.77302 15.8212 9.46897 15.6158 9.28112 15.2776L11.0294 14.3063ZM10.3584 13.9443C10.1262 13.9443 9.93612 14.0441 9.81791 14.1567C9.76632 14.2059 9.73527 14.2504 9.71908 14.2766C9.71066 14.2903 9.70501 14.301 9.70164 14.3079C9.69826 14.3147 9.69667 14.3187 9.69652 14.319L11.5535 15.0618C11.4448 15.3336 11.1105 15.9443 10.3584 15.9443V13.9443ZM9.69165 14.3315C9.7432 14.1974 9.7786 14.0511 9.79535 13.8893L11.7847 14.0951C11.7507 14.4241 11.6761 14.7433 11.5583 15.0494L9.69165 14.3315ZM9.795 13.8927C9.8251 13.5917 9.87587 13.2996 9.949 13.0176L11.885 13.5195C11.8396 13.6945 11.8058 13.8848 11.7851 14.0917L9.795 13.8927ZM9.94685 13.026C10.0317 12.6867 10.1679 12.3673 10.3587 12.0748L12.0339 13.1674C11.9708 13.2642 11.9208 13.3765 11.8871 13.5111L9.94685 13.026ZM10.3325 12.1172C10.583 11.6879 10.9685 11.4023 11.3792 11.2156L12.2068 13.0363C12.0589 13.1036 12.0466 13.1481 12.0601 13.125L10.3325 12.1172ZM11.3458 11.2315C11.5419 11.1335 11.7522 11.0683 11.9569 11.0228L12.3908 12.9752C12.2908 12.9974 12.2471 13.0169 12.2402 13.0204L11.3458 11.2315ZM11.9569 11.0228C12.1512 10.9796 12.3515 10.9483 12.5567 10.9278L12.7558 12.9179C12.6225 12.9312 12.5011 12.9507 12.3908 12.9752L11.9569 11.0228ZM12.5003 10.9351C12.695 10.9043 12.8903 10.8838 13.0861 10.8735L13.1912 12.8707C13.0654 12.8773 12.9391 12.8906 12.8122 12.9106L12.5003 10.9351ZM13.034 10.8776C13.2151 10.8585 13.3879 10.8467 13.5449 10.8467V12.8467C13.4819 12.8467 13.3839 12.8518 13.2434 12.8666L13.034 10.8776ZM13.5449 10.8467C13.5425 10.8467 13.5482 10.8467 13.5675 10.8462C13.5849 10.8458 13.6084 10.8451 13.6386 10.8441C13.6988 10.8421 13.781 10.839 13.8858 10.8348L13.9657 12.8332C13.7645 12.8412 13.6124 12.8467 13.5449 12.8467V10.8467ZM13.8842 10.8349C14.1027 10.8257 14.3325 10.8213 14.5732 10.8213V12.8213C14.3569 12.8213 14.1551 12.8253 13.9674 12.8331L13.8842 10.8349ZM14.5732 10.8213C14.841 10.8213 15.0935 10.8305 15.3291 10.8501L15.163 12.8432C14.9924 12.829 14.7963 12.8213 14.5732 12.8213V10.8213ZM15.2877 10.8475C15.4091 10.8526 15.5386 10.8624 15.6604 10.8834C15.7246 10.8945 15.9988 10.9372 16.239 11.1293L14.9896 12.691C15.0544 12.7429 15.1134 12.7758 15.1535 12.7955C15.1947 12.8157 15.2289 12.8284 15.2512 12.8358C15.2742 12.8435 15.2918 12.848 15.302 12.8504C15.3125 12.8529 15.319 12.8541 15.3206 12.8544C15.3229 12.8548 15.3147 12.8533 15.2928 12.8513C15.2717 12.8494 15.2426 12.8474 15.2045 12.8458L15.2877 10.8475ZM16.2786 11.1627C16.3865 11.2586 16.5502 11.4191 16.661 11.6407L14.8722 12.5351C14.9068 12.6043 14.9407 12.6451 14.9502 12.6562C14.9616 12.6694 14.9638 12.6699 14.9499 12.6576L16.2786 11.1627ZM16.661 11.6407C16.8027 11.9241 16.8047 12.2351 16.8047 12.3672H14.8047C14.8047 12.3268 14.8026 12.3179 14.8043 12.3309C14.8053 12.3383 14.8085 12.3594 14.8166 12.3898C14.8242 12.4188 14.8402 12.4712 14.8722 12.5351L16.661 11.6407ZM16.8047 12.3672V19.9082H14.8047V12.3672H16.8047ZM16.8021 19.9795C16.758 20.5972 16.3235 20.9485 15.9569 21.0995L15.1954 19.2501C15.1674 19.2617 15.0748 19.3046 14.982 19.4129C14.8784 19.5338 14.818 19.6859 14.8072 19.837L16.8021 19.9795ZM15.8924 21.1235C15.6592 21.2012 15.4077 21.2509 15.1494 21.2819L14.9111 19.2962C15.076 19.2764 15.1885 19.2499 15.2599 19.2261L15.8924 21.1235ZM15.1449 21.2825C14.8955 21.3112 14.6359 21.33 14.3665 21.3392L14.2976 19.3404C14.5191 19.3328 14.7249 19.3177 14.9156 19.2957L15.1449 21.2825ZM14.3665 21.3392C14.1452 21.3469 13.9452 21.3619 13.7656 21.3835L13.5273 19.3977C13.7709 19.3685 14.028 19.3497 14.2976 19.3404L14.3665 21.3392ZM13.7262 21.3874C13.6573 21.393 13.6069 21.401 13.5721 21.4086C13.5369 21.4163 13.5239 21.4223 13.5268 21.421L12.7252 19.5887C12.9962 19.4701 13.2885 19.4161 13.5667 19.3938L13.7262 21.3874ZM13.5067 21.4296C13.5461 21.4134 13.6552 21.3603 13.7554 21.2306C13.8657 21.0878 13.9102 20.9234 13.9102 20.7842H11.9102C11.9102 20.518 11.9906 20.2435 12.1728 20.0077C12.345 19.7849 12.562 19.6557 12.7452 19.5802L13.5067 21.4296ZM13.9102 20.7842C13.9102 20.6924 13.8925 20.5636 13.8236 20.4258C13.7527 20.2839 13.6492 20.1766 13.541 20.1045L12.4316 21.7686C12.0686 21.5266 11.9102 21.1432 11.9102 20.7842H13.9102ZM13.611 20.1557C13.4762 20.0478 13.3438 20.0163 13.2754 20.0077L13.0273 21.9923C12.8235 21.9668 12.5811 21.893 12.3616 21.7174L13.611 20.1557ZM13.3939 20.0299C13.3754 20.0252 13.3654 20.0254 13.3672 20.0254V22.0254C13.2166 22.0254 13.0627 22.0086 12.9088 21.9701L13.3939 20.0299ZM13.4912 20.0331C13.51 20.0355 13.524 20.0368 13.5336 20.0375C13.5434 20.0382 13.5469 20.0381 13.5449 20.0381V22.0381C13.4414 22.0381 13.339 22.0297 13.2432 22.0177L13.4912 20.0331ZM13.5449 20.0381C13.9875 20.0381 14.3814 20.0339 14.7272 20.0257L14.7748 22.0251C14.4096 22.0338 13.9995 22.0381 13.5449 22.0381V20.0381ZM14.7272 20.0257C15.0819 20.0172 15.4196 20.0088 15.7403 20.0003L15.7929 21.9997C15.4704 22.0081 15.131 22.0166 14.7748 22.0251L14.7272 20.0257ZM15.714 20.0014C16.0435 19.984 16.3649 19.971 16.6783 19.9623L16.7338 21.9615C16.4379 21.9697 16.133 21.9821 15.8192 21.9986L15.714 20.0014ZM16.6506 19.9635C16.9756 19.9454 17.3158 19.9365 17.6709 19.9365V21.9365C17.3489 21.9365 17.0459 21.9446 16.7615 21.9604L16.6506 19.9635ZM17.6709 19.9365C17.8946 19.9365 18.1182 19.9463 18.3415 19.9657L18.1683 21.9582C18.0023 21.9437 17.8365 21.9365 17.6709 21.9365V19.9365ZM18.2983 19.9629C18.5061 19.9719 18.7214 19.9854 18.944 20.0032L18.7845 21.9968C18.584 21.9808 18.393 21.9689 18.2114 21.961L18.2983 19.9629ZM18.928 20.002C19.3041 20.026 19.6849 20.0381 20.0703 20.0381V22.0381C19.6432 22.0381 19.22 22.0247 18.8006 21.998L18.928 20.002ZM20.0703 20.0381H20.7051V22.0381H20.0703V20.0381ZM20.7051 20.0381C20.6158 20.0381 20.5539 20.0555 20.5285 20.064L21.161 21.9614C21.0339 22.0037 20.879 22.0381 20.7051 22.0381V20.0381ZM20.6803 20.0263C20.431 20.0679 20.1897 20.2179 20.0444 20.4601C19.9262 20.657 19.9209 20.8331 19.9209 20.8857H21.9209C21.9209 21.0146 21.9029 21.2499 21.7593 21.4891C21.5886 21.7737 21.3092 21.9491 21.0091 21.9991L20.6803 20.0263ZM19.9209 20.8857C19.9209 20.9385 19.9282 21.0445 19.9827 21.1718C20.0419 21.3099 20.1447 21.4432 20.29 21.5401L21.3994 19.876C21.8283 20.1619 21.9209 20.608 21.9209 20.8857H19.9209ZM20.29 21.5401C20.3126 21.5551 20.3321 21.5664 20.3467 21.5743C20.3616 21.5824 20.3737 21.5882 20.3822 21.5921C20.3985 21.5995 20.4072 21.6024 20.4051 21.6017C20.4036 21.6012 20.3962 21.5987 20.3817 21.5946C20.3673 21.5906 20.3482 21.5856 20.3237 21.5799L20.7818 19.633C20.9228 19.6662 21.1826 19.7314 21.3994 19.876L20.29 21.5401ZM20.3432 21.5842C20.1556 21.5441 19.9581 21.5165 19.7499 21.5027L19.8829 19.5071C20.1825 19.5271 20.4759 19.5673 20.7623 19.6286L20.3432 21.5842ZM19.7169 21.4999C19.4577 21.474 19.2183 21.4479 18.999 21.4216L19.2373 19.4358C19.4412 19.4603 19.6673 19.485 19.9159 19.5098L19.7169 21.4999ZM18.9602 21.4162C18.6862 21.3723 18.4061 21.2986 18.1504 21.1708L19.0449 19.3819C19.06 19.3895 19.1269 19.4174 19.2762 19.4413L18.9602 21.4162ZM18.1504 21.1708C17.9451 21.0681 17.7409 20.9065 17.5937 20.6672C17.4466 20.4282 17.3945 20.1739 17.3945 19.9463H19.3945C19.3945 19.871 19.3763 19.7479 19.297 19.619C19.2174 19.4897 19.1148 19.4169 19.0449 19.3819L18.1504 21.1708Z" fill="black"/>
</svg>
